<?xml version="1.0" encoding="UTF-8" standalone="no"?>
<!-- Created with Inkscape (http://www.inkscape.org/) -->

<svg
   width="294.69122mm"
   height="206.82095mm"
   viewBox="0 0 294.69122 206.82095"
   version="1.1"
   id="svg5"
   inkscape:version="1.2.1 (9c6d41e410, 2022-07-14)"
   sodipodi:docname="logo_pasta_bit_vector.svg"
   inkscape:export-filename="logo_pasta_bit_vector.png"
   inkscape:export-xdpi="110.32565"
   inkscape:export-ydpi="110.32565"
   xmlns:inkscape="http://www.inkscape.org/namespaces/inkscape"
   xmlns:sodipodi="http://sodipodi.sourceforge.net/DTD/sodipodi-0.dtd"
   xmlns="http://www.w3.org/2000/svg"
   xmlns:svg="http://www.w3.org/2000/svg">
  <sodipodi:namedview
     id="namedview7"
     pagecolor="#ffffff"
     bordercolor="#999999"
     borderopacity="1"
     inkscape:showpageshadow="0"
     inkscape:pageopacity="0"
     inkscape:pagecheckerboard="0"
     inkscape:deskcolor="#d1d1d1"
     inkscape:document-units="px"
     showgrid="false"
     inkscape:zoom="0.41757352"
     inkscape:cx="-46.698363"
     inkscape:cy="1132.7347"
     inkscape:window-width="2556"
     inkscape:window-height="1401"
     inkscape:window-x="0"
     inkscape:window-y="578"
     inkscape:window-maximized="1"
     inkscape:current-layer="layer1">
    <inkscape:grid
       type="xygrid"
       id="grid9"
       originx="0"
       originy="0" />
  </sodipodi:namedview>
  <defs
     id="defs2" />
  <g
     inkscape:label="Layer 1"
     inkscape:groupmode="layer"
     id="layer1"
     transform="translate(-148.57133,-309.494)">
    <path
       id="path35651"
       style="color:#000000;fill:#89a02c;stroke:#445016;stroke-linecap:round"
       d="m 302.29318,309.994 a 1.857095,1.857095 0 0 0 -1.31465,0.54518 l -9.26352,9.26559 a 1.857095,1.857095 0 0 0 0,2.62516 1.857095,1.857095 0 0 0 2.62465,0 l 9.26558,-9.26403 a 1.857095,1.857095 0 0 0 0,-2.62672 1.857095,1.857095 0 0 0 -1.31206,-0.54518 z m 101.03672,0 a 1.857095,1.857095 0 0 0 -1.31258,0.54518 l -7.398,7.39645 a 1.857095,1.857095 0 0 0 0,2.62672 1.857095,1.857095 0 0 0 2.62672,0 l 7.39644,-7.39645 a 1.857095,1.857095 0 0 0 0,-2.62672 1.857095,1.857095 0 0 0 -1.31258,-0.54518 z m 11.22671,0 a 1.857095,1.857095 0 0 0 -1.31258,0.54518 l -22.02347,22.02347 a 1.857095,1.857095 0 0 0 0,2.62464 1.857095,1.857095 0 0 0 2.62517,0 l 22.02346,-22.02139 a 1.857095,1.857095 0 0 0 0,-2.62672 1.857095,1.857095 0 0 0 -1.31258,-0.54518 z m -258.20905,0.002 a 1.857095,1.857095 0 0 0 -1.31258,0.54518 l -5.42189,5.42189 a 1.857095,1.857095 0 0 0 0,2.62465 1.857095,1.857095 0 0 0 2.62516,0 l 5.42396,-5.42189 a 1.857095,1.857095 0 0 0 0,-2.62465 1.857095,1.857095 0 0 0 -1.31465,-0.54518 z m 44.90631,0 a 1.857095,1.857095 0 0 0 -1.31259,0.54311 l -50.32819,50.32975 a 1.857095,1.857095 0 0 0 0,2.62516 1.857095,1.857095 0 0 0 2.62516,0 l 50.3282,-50.32819 a 1.857095,1.857095 0 0 0 0,-2.62672 1.857095,1.857095 0 0 0 -1.31258,-0.54311 z m 123.49013,0 a 1.857095,1.857095 0 0 0 -1.31258,0.54311 l -26.59734,26.59735 a 1.857095,1.857095 0 0 0 0,2.62723 1.857095,1.857095 0 0 0 2.62671,0 l 26.59786,-26.59786 a 1.857095,1.857095 0 0 0 0,-2.62672 1.857095,1.857095 0 0 0 -1.31465,-0.54311 z m 11.22671,0 a 1.857095,1.857095 0 0 0 -1.31258,0.54311 l -35.26348,35.26349 a 1.857095,1.857095 0 0 0 0,2.62723 1.857095,1.857095 0 0 0 2.62464,0 l 35.26607,-35.264 a 1.857095,1.857095 0 0 0 0,-2.62672 1.857095,1.857095 0 0 0 -1.31465,-0.54311 z m 101.03931,0 a 1.857095,1.857095 0 0 0 -1.31465,0.54311 l -51.27129,51.27336 a 1.857095,1.857095 0 0 0 0,2.62516 1.857095,1.857095 0 0 0 2.62465,0 l 51.27335,-51.2718 a 1.857095,1.857095 0 0 0 0,-2.62672 1.857095,1.857095 0 0 0 -1.31206,-0.54311 z m -246.98389,5.1e-4 a 1.857095,1.857095 0 0 0 -1.3131,0.54467 l -39.09994,39.09942 a 1.857095,1.857095 0 0 0 0,2.62672 1.857095,1.857095 0 0 0 2.62516,0 l 39.10149,-39.10149 a 1.857095,1.857095 0 0 0 0,-2.62465 1.857095,1.857095 0 0 0 -1.31361,-0.54467 z m 100.96231,0 a 1.857095,1.857095 0 0 0 -1.23662,0.5426 l -0.59738,0.59738 a 1.857095,1.857095 0 0 0 0,2.62723 1.857095,1.857095 0 0 0 2.62672,0 l 0.59789,-0.59789 a 1.857095,1.857095 0 0 0 0,-2.62672 1.857095,1.857095 0 0 0 -1.39061,-0.5426 z m 22.36814,0.005 a 1.857095,1.857095 0 0 0 -1.15135,0.53743 l -17.93172,17.93173 a 1.857095,1.857095 0 0 0 0,2.62671 1.857095,1.857095 0 0 0 2.62671,0 l 17.93173,-17.93172 a 1.857095,1.857095 0 0 0 0,-2.62672 1.857095,1.857095 0 0 0 -1.47537,-0.53743 z m -145.94406,0.003 a 1.857095,1.857095 0 0 0 -1.15083,0.5364 l -16.6486,16.64808 a 1.857095,1.857095 0 0 0 0,2.62516 1.857095,1.857095 0 0 0 2.62516,0 l 16.6486,-16.64859 a 1.857095,1.857095 0 0 0 0,-2.62465 1.857095,1.857095 0 0 0 -1.47433,-0.5364 z m 258.1615,0.002 a 1.857095,1.857095 0 0 0 -1.10536,0.53278 l -36.64634,36.64841 a 1.857095,1.857095 0 0 0 0,2.62517 1.857095,1.857095 0 0 0 2.62517,0 l 36.6484,-36.64686 a 1.857095,1.857095 0 0 0 0,-2.62672 1.857095,1.857095 0 0 0 -1.52187,-0.53278 z m -246.98079,0.003 a 1.857095,1.857095 0 0 0 -1.10484,0.53175 l -27.8753,27.87479 a 1.857095,1.857095 0 0 0 0,2.62516 1.857095,1.857095 0 0 0 2.62516,0 l 27.87479,-27.8753 a 1.857095,1.857095 0 0 0 0,-2.62465 1.857095,1.857095 0 0 0 -1.51981,-0.53175 z m 33.87339,5.2e-4 a 1.857095,1.857095 0 0 0 -1.31207,0.5426 l -61.54146,61.54095 a 1.857095,1.857095 0 0 0 0,2.62723 1.857095,1.857095 0 0 0 2.62516,0 l 61.54095,-61.54095 a 1.857095,1.857095 0 0 0 0,-2.62723 1.857095,1.857095 0 0 0 -1.31258,-0.5426 z m 10.81639,0.40773 a 1.857095,1.857095 0 0 0 -1.31206,0.54518 l -72.35786,72.35734 a 1.857095,1.857095 0 0 0 0,2.62723 1.857095,1.857095 0 0 0 2.62516,0 l 72.35941,-72.35941 a 1.857095,1.857095 0 0 0 0,-2.62516 1.857095,1.857095 0 0 0 -1.31465,-0.54518 z m 10.09809,1.12913 a 1.857095,1.857095 0 0 0 -1.31258,0.54466 l -32.51584,32.51585 a 1.857095,1.857095 0 0 0 0,2.62516 1.857095,1.857095 0 0 0 2.62723,0 l 32.51533,-32.51378 a 1.857095,1.857095 0 0 0 0,-2.62723 1.857095,1.857095 0 0 0 -1.31414,-0.54466 z m 9.28471,1.94355 a 1.857095,1.857095 0 0 0 -1.31413,0.5426 l -30.61364,30.61518 a 1.857095,1.857095 0 0 0 0,2.62723 1.857095,1.857095 0 0 0 2.62516,0 l 30.61519,-30.61518 a 1.857095,1.857095 0 0 0 0,-2.62723 1.857095,1.857095 0 0 0 -1.31258,-0.5426 z m 8.15764,2.87269 a 1.857095,1.857095 0 0 0 -1.10484,0.53123 l -29.26178,29.26178 a 1.857095,1.857095 0 0 0 0,2.62516 1.857095,1.857095 0 0 0 2.62723,0 l 29.25971,-29.26177 a 1.857095,1.857095 0 0 0 0,-2.62517 1.857095,1.857095 0 0 0 -1.52032,-0.53123 z m 190.08659,0.95705 a 1.857095,1.857095 0 0 0 -1.31258,0.54518 l -58.57214,58.57214 a 1.857095,1.857095 0 0 0 0,2.62516 1.857095,1.857095 0 0 0 2.62516,0 L 442.22262,320.49 a 1.857095,1.857095 0 0 0 0,-2.62465 1.857095,1.857095 0 0 0 -1.31258,-0.54518 z m -101.72816,0.69143 a 1.857095,1.857095 0 0 0 -1.31465,0.54518 l -35.91408,35.91409 a 1.857095,1.857095 0 0 0 0,2.62465 1.857095,1.857095 0 0 0 2.62671,0 l 35.91409,-35.91409 a 1.857095,1.857095 0 0 0 0,-2.62465 1.857095,1.857095 0 0 0 -1.31207,-0.54518 z m -80.85966,2.27376 a 1.857095,1.857095 0 0 0 -1.31258,0.54467 l -29.99197,29.99042 a 1.857095,1.857095 0 0 0 0,2.62671 1.857095,1.857095 0 0 0 2.62671,0 l 29.99042,-29.9899 a 1.857095,1.857095 0 0 0 0,-2.62723 1.857095,1.857095 0 0 0 -1.31258,-0.54467 z m 6.10763,5.11907 a 1.857095,1.857095 0 0 0 -1.31258,0.54467 l -34.05063,34.05115 a 1.857095,1.857095 0 0 0 0,2.62671 1.857095,1.857095 0 0 0 2.62464,0 l 34.05116,-34.0527 a 1.857095,1.857095 0 0 0 0,-2.62516 1.857095,1.857095 0 0 0 -1.31259,-0.54467 z m 76.91986,1.66605 a 1.857095,1.857095 0 0 0 -1.31258,0.5426 l -35.52342,35.52341 a 1.857095,1.857095 0 0 0 0,2.62723 1.857095,1.857095 0 0 0 2.62672,0 l 35.52186,-35.52341 a 1.857095,1.857095 0 0 0 0,-2.62723 1.857095,1.857095 0 0 0 -1.31258,-0.5426 z m -72.18371,4.82606 a 1.857095,1.857095 0 0 0 -1.31465,0.54312 l -118.23826,118.2398 a 1.857095,1.857095 0 0 0 0,2.62516 1.857095,1.857095 0 0 0 2.62516,0 L 270.47858,335.06637 a 1.857095,1.857095 0 0 0 0,-2.62671 1.857095,1.857095 0 0 0 -1.31258,-0.54312 z m 166.74693,1.38183 a 1.857095,1.857095 0 0 0 -1.02216,0.52038 l -57.33604,57.33397 a 1.857095,1.857095 0 0 0 0,2.62722 1.857095,1.857095 0 0 0 2.62672,0 l 57.33396,-57.33603 a 1.857095,1.857095 0 0 0 0,-2.62516 1.857095,1.857095 0 0 0 -1.60248,-0.52038 z m -92.60262,2.8608 a 1.857095,1.857095 0 0 0 -1.10536,0.53279 l -35.13067,35.13067 a 1.857095,1.857095 0 0 0 0,2.62723 1.857095,1.857095 0 0 0 2.62516,0 l 35.13274,-35.13274 a 1.857095,1.857095 0 0 0 0,-2.62516 1.857095,1.857095 0 0 0 -1.52187,-0.53279 z m -70.96673,3.80442 a 1.857095,1.857095 0 0 0 -1.31413,0.54467 l -67.08996,67.08996 a 1.857095,1.857095 0 0 0 0,2.62672 1.857095,1.857095 0 0 0 2.62671,0 l 67.08996,-67.08997 a 1.857095,1.857095 0 0 0 0,-2.62671 1.857095,1.857095 0 0 0 -1.31258,-0.54467 z m 73.34385,5.24206 a 1.857095,1.857095 0 0 0 -1.31258,0.54312 l -34.74207,34.74 a 1.857095,1.857095 0 0 0 0,2.62671 1.857095,1.857095 0 0 0 2.62723,0 l 34.74,-34.74 a 1.857095,1.857095 0 0 0 0,-2.62671 1.857095,1.857095 0 0 0 -1.31258,-0.54312 z m 85.80975,4.00079 a 1.857095,1.857095 0 0 0 -1.31362,0.54415 l -55.9294,55.9294 a 1.857095,1.857095 0 0 0 0,2.62723 1.857095,1.857095 0 0 0 2.62464,0 l 55.93199,-55.92992 a 1.857095,1.857095 0 0 0 0,-2.62671 1.857095,1.857095 0 0 0 -1.31361,-0.54415 z m -236.18197,0.42581 a 1.857095,1.857095 0 0 0 -1.3131,0.54415 l -44.38902,44.39058 a 1.857095,1.857095 0 0 0 0,2.62671 1.857095,1.857095 0 0 0 2.62516,0 l 44.39057,-44.39057 a 1.857095,1.857095 0 0 0 0,-2.62672 1.857095,1.857095 0 0 0 -1.31361,-0.54415 z m 78.40348,0.18242 a 1.857095,1.857095 0 0 0 -1.31258,0.54519 l -57.32415,57.32208 a 1.857095,1.857095 0 0 0 0,2.62723 1.857095,1.857095 0 0 0 2.62723,0 l 57.32208,-57.32415 a 1.857095,1.857095 0 0 0 0,-2.62516 1.857095,1.857095 0 0 0 -1.31258,-0.54519 z m 74.13656,4.44727 a 1.857095,1.857095 0 0 0 -1.31206,0.54519 l -34.34984,34.34984 a 1.857095,1.857095 0 0 0 0,2.62465 1.857095,1.857095 0 0 0 2.62671,0 L 349.1699,357.4123 a 1.857095,1.857095 0 0 0 0,-2.62516 1.857095,1.857095 0 0 0 -1.31465,-0.54519 z m -152.54004,6.5965 a 1.857095,1.857095 0 0 0 -1.3131,0.54415 l -44.38902,44.39109 a 1.857095,1.857095 0 0 0 0,2.62671 1.857095,1.857095 0 0 0 2.62516,0 l 44.39057,-44.39057 a 1.857095,1.857095 0 0 0 0,-2.62723 1.857095,1.857095 0 0 0 -1.31361,-0.54415 z m 76.85061,1.73581 a 1.857095,1.857095 0 0 0 -1.31207,0.54312 l -24.78143,24.78092 a 1.857095,1.857095 0 0 0 -0.52813,1.1498 1.857095,1.857095 0 0 0 -1.15136,0.53175 l -19.51973,19.51767 a 1.857095,1.857095 0 0 0 0,2.62723 1.857095,1.857095 0 0 0 2.62671,0 L 247.01748,392.205 a 1.857095,1.857095 0 0 0 0.5364,-1.1529 1.857095,1.857095 0 0 0 1.1436,-0.52658 l 24.78298,-24.78144 a 1.857095,1.857095 0 0 0 0,-2.62671 1.857095,1.857095 0 0 0 -1.31464,-0.54312 z m 77.85933,0.72657 a 1.857095,1.857095 0 0 0 -1.31414,0.54312 l -33.9571,33.95865 a 1.857095,1.857095 0 0 0 0,2.62723 1.857095,1.857095 0 0 0 2.62517,0 l 33.95865,-33.95917 a 1.857095,1.857095 0 0 0 0,-2.62671 1.857095,1.857095 0 0 0 -1.31258,-0.54312 z m 76.76585,1.8185 a 1.857095,1.857095 0 0 0 -1.31258,0.5426 l -54.50985,54.50985 a 1.857095,1.857095 0 0 0 0,2.62516 1.857095,1.857095 0 0 0 2.62723,0 l 54.50779,-54.50778 a 1.857095,1.857095 0 0 0 0,-2.62723 1.857095,1.857095 0 0 0 -1.31259,-0.5426 z m -231.47579,6.94583 a 1.857095,1.857095 0 0 0 -1.3131,0.54415 l -44.38902,44.39057 a 1.857095,1.857095 0 0 0 0,2.62723 1.857095,1.857095 0 0 0 2.62516,0 l 44.39057,-44.39057 a 1.857095,1.857095 0 0 0 0,-2.62723 1.857095,1.857095 0 0 0 -1.31361,-0.54415 z m 156.87828,0.29248 a 1.857095,1.857095 0 0 0 -1.31258,0.54467 l -33.5685,33.56643 a 1.857095,1.857095 0 0 0 0,2.62671 1.857095,1.857095 0 0 0 2.62723,0 l 33.56643,-33.56591 a 1.857095,1.857095 0 0 0 0,-2.62723 1.857095,1.857095 0 0 0 -1.31258,-0.54467 z m -138.1895,3.47266 a 1.857095,1.857095 0 0 0 -1.31258,0.5426 l -63.07832,63.08039 a 1.857095,1.857095 0 0 0 0,2.62671 1.857095,1.857095 0 0 0 2.62516,0 l 63.07987,-63.07987 a 1.857095,1.857095 0 0 0 0,-2.62723 1.857095,1.857095 0 0 0 -1.31413,-0.5426 z m -11.46028,0.23306 a 1.857095,1.857095 0 0 0 -1.3131,0.54415 l -51.61752,51.61907 a 1.857095,1.857095 0 0 0 0,2.62672 1.857095,1.857095 0 0 0 2.62516,0 l 51.61907,-51.61907 a 1.857095,1.857095 0 0 0 0,-2.62672 1.857095,1.857095 0 0 0 -1.31361,-0.54415 z m 219.54112,4.98833 a 1.857095,1.857095 0 0 0 -1.3131,0.54415 l -53.33834,53.33783 a 1.857095,1.857095 0 0 0 -0.51832,1.125 1.857095,1.857095 0 0 0 -1.13171,0.52554 l -30.55111,30.55059 a 1.857095,1.857095 0 0 0 0,2.62672 1.857095,1.857095 0 0 0 2.62723,0 l 30.55059,-30.55059 a 1.857095,1.857095 0 0 0 0.53485,-1.1343 1.857095,1.857095 0 0 0 1.1157,-0.5178 l 53.33783,-53.33628 a 1.857095,1.857095 0 0 0 0,-2.62671 1.857095,1.857095 0 0 0 -1.31362,-0.54415 z m -67.72351,0.36432 a 1.857095,1.857095 0 0 0 -1.31259,0.54518 l -33.17575,33.17575 a 1.857095,1.857095 0 0 0 0,2.62465 1.857095,1.857095 0 0 0 2.62723,0 l 33.17575,-33.17575 a 1.857095,1.857095 0 0 0 0,-2.62465 1.857095,1.857095 0 0 0 -1.31464,-0.54518 z m 2.23449,8.99221 a 1.857095,1.857095 0 0 0 -1.31259,0.54467 l -32.84967,32.84968 a 1.857095,1.857095 0 0 0 0,2.62516 1.857095,1.857095 0 0 0 2.62516,0 l 32.84968,-32.84968 a 1.857095,1.857095 0 0 0 0,-2.62516 1.857095,1.857095 0 0 0 -1.31258,-0.54467 z m -101.9974,0.95963 a 1.857095,1.857095 0 0 0 -1.31309,0.54416 l -21.14858,21.15064 a 1.857095,1.857095 0 0 0 0,2.62465 1.857095,1.857095 0 0 0 2.62516,0 l 21.15013,-21.14806 a 1.857095,1.857095 0 0 0 0,-2.62723 1.857095,1.857095 0 0 0 -1.31362,-0.54416 z m 7.88376,3.34295 a 1.857095,1.857095 0 0 0 -1.31206,0.54312 l -25.25014,25.25014 a 1.857095,1.857095 0 0 0 0,2.62464 1.857095,1.857095 0 0 0 2.62671,0 l 25.24807,-25.24807 a 1.857095,1.857095 0 0 0 0,-2.62671 1.857095,1.857095 0 0 0 -1.31258,-0.54312 z m 154.89649,2.27376 a 1.857095,1.857095 0 0 0 -1.31207,0.54261 l -78.27377,78.27377 a 1.857095,1.857095 0 0 0 0,2.62672 1.857095,1.857095 0 0 0 2.62516,0 l 78.27326,-78.27326 a 1.857095,1.857095 0 0 0 0,-2.62723 1.857095,1.857095 0 0 0 -1.31258,-0.54261 z m -148.39715,2.25723 a 1.857095,1.857095 0 0 0 -1.10432,0.53175 l -32.60163,32.60163 a 1.857095,1.857095 0 0 0 0,2.62671 1.857095,1.857095 0 0 0 2.62671,0 l 32.59957,-32.60163 a 1.857095,1.857095 0 0 0 0,-2.62671 1.857095,1.857095 0 0 0 -1.52033,-0.53175 z m 89.52942,0.28319 a 1.857095,1.857095 0 0 0 -1.10484,0.53175 l -32.41197,32.41197 a 1.857095,1.857095 0 0 0 0,2.62517 1.857095,1.857095 0 0 0 2.62516,0 l 32.41197,-32.41198 a 1.857095,1.857095 0 0 0 0,-2.62516 1.857095,1.857095 0 0 0 -1.52032,-0.53175 z m -83.94268,5.55108 a 1.857095,1.857095 0 0 0 -1.31258,0.54519 l -72.67153,72.67153 a 1.857095,1.857095 0 0 0 0,2.62516 1.857095,1.857095 0 0 0 2.62671,0 l 72.67205,-72.67205 a 1.857095,1.857095 0 0 0 0,-2.62464 1.857095,1.857095 0 0 0 -1.31465,-0.54519 z m 86.19733,3.61528 a 1.857095,1.857095 0 0 0 -1.31259,0.54519 l -31.90037,31.89831 a 1.857095,1.857095 0 0 0 0,2.62671 1.857095,1.857095 0 0 0 2.62723,0 l 31.89831,-31.90037 a 1.857095,1.857095 0 0 0 0,-2.62465 1.857095,1.857095 0 0 0 -1.31258,-0.54519 z m -82.32986,3.74603 a 1.857095,1.857095 0 0 0 -1.31465,0.54518 l -65.31074,65.31023 a 1.857095,1.857095 0 0 0 0,2.62516 1.857095,1.857095 0 0 0 2.62723,0 L 279.7483,415.6072 a 1.857095,1.857095 0 0 0 0,-2.62465 1.857095,1.857095 0 0 0 -1.31258,-0.54518 z m 134.23625,0.48059 a 1.857095,1.857095 0 0 0 -1.31258,0.54312 l -64.83222,64.8317 a 1.857095,1.857095 0 0 0 0,2.62516 1.857095,1.857095 0 0 0 2.62723,0 l 64.83015,-64.83015 a 1.857095,1.857095 0 0 0 0,-2.62671 1.857095,1.857095 0 0 0 -1.31258,-0.54312 z m -217.35573,4.05453 a 1.857095,1.857095 0 0 0 -1.31413,0.54312 l -44.39057,44.39057 a 1.857095,1.857095 0 0 0 0,2.62517 1.857095,1.857095 0 0 0 2.62671,0 l 44.39057,-44.38851 a 1.857095,1.857095 0 0 0 0,-2.62723 1.857095,1.857095 0 0 0 -1.31258,-0.54312 z m 167.28437,0.91364 a 1.857095,1.857095 0 0 0 -1.10433,0.53175 l -31.3831,31.38465 a 1.857095,1.857095 0 0 0 0,2.62516 1.857095,1.857095 0 0 0 2.62517,0 l 31.38258,-31.38258 a 1.857095,1.857095 0 0 0 0,-2.62723 1.857095,1.857095 0 0 0 -1.52032,-0.53175 z m -82.00688,3.61787 a 1.857095,1.857095 0 0 0 -1.31259,0.54467 l -55.9294,55.92992 a 1.857095,1.857095 0 0 0 0,2.62671 1.857095,1.857095 0 0 0 2.62465,0 l 55.93198,-55.93147 a 1.857095,1.857095 0 0 0 0,-2.62516 1.857095,1.857095 0 0 0 -1.31464,-0.54467 z m 84.29666,5.51542 a 1.857095,1.857095 0 0 0 -1.31207,0.54312 l -30.90664,30.90613 a 1.857095,1.857095 0 0 0 0,2.62516 1.857095,1.857095 0 0 0 2.62723,0 l 30.90613,-30.90457 a 1.857095,1.857095 0 0 0 0,-2.62672 1.857095,1.857095 0 0 0 -1.31465,-0.54312 z m -169.57518,1.17874 a 1.857095,1.857095 0 0 0 -1.3131,0.54416 l -44.38902,44.39057 a 1.857095,1.857095 0 0 0 0,2.62516 1.857095,1.857095 0 0 0 2.62516,0 l 44.39057,-44.38902 a 1.857095,1.857095 0 0 0 0,-2.62671 1.857095,1.857095 0 0 0 -1.31361,-0.54416 z m 212.65162,0.65164 a 1.857095,1.857095 0 0 0 -1.31465,0.54261 l -48.89831,48.90037 a 1.857095,1.857095 0 0 0 0,2.62516 1.857095,1.857095 0 0 0 2.62723,0 l 48.89831,-48.8983 a 1.857095,1.857095 0 0 0 0,-2.62723 1.857095,1.857095 0 0 0 -1.31258,-0.54261 z m -127.14263,3.65043 a 1.857095,1.857095 0 0 0 -1.31258,0.54467 l -43.20305,43.20304 a 1.857095,1.857095 0 0 0 0,2.62723 1.857095,1.857095 0 0 0 2.62517,0 l 43.20304,-43.20304 a 1.857095,1.857095 0 0 0 0,-2.62723 1.857095,1.857095 0 0 0 -1.31258,-0.54467 z m -85.50796,6.9236 a 1.857095,1.857095 0 0 0 -1.31413,0.54467 l -38.32221,38.32428 a 1.857095,1.857095 0 0 0 0,2.62516 1.857095,1.857095 0 0 0 2.62465,0 l 38.32427,-38.32221 a 1.857095,1.857095 0 0 0 0,-2.62723 1.857095,1.857095 0 0 0 -1.31258,-0.54467 z m 31.53555,2.14251 a 1.857095,1.857095 0 0 0 -1.31258,0.54519 l -36.18178,36.18125 a 1.857095,1.857095 0 0 0 0,2.62516 1.857095,1.857095 0 0 0 2.62672,0 l 36.18177,-36.1797 a 1.857095,1.857095 0 0 0 0,-2.62671 1.857095,1.857095 0 0 0 -1.31413,-0.54519 z m -13.32425,2.09961 a 1.857095,1.857095 0 0 0 -1.31259,0.54312 l -34.08422,34.08371 a 1.857095,1.857095 0 0 0 0,2.62516 1.857095,1.857095 0 0 0 2.62723,0 l 34.08371,-34.08216 a 1.857095,1.857095 0 0 0 0,-2.62671 1.857095,1.857095 0 0 0 -1.31413,-0.54312 z m -11.44995,0.0289 a 1.857095,1.857095 0 0 0 -1.10484,0.53175 l -34.06821,34.06614 a 1.857095,1.857095 0 0 0 0,2.62516 1.857095,1.857095 0 0 0 2.62671,0 l 34.06666,-34.06614 a 1.857095,1.857095 0 0 0 0,-2.62516 1.857095,1.857095 0 0 0 -1.52032,-0.53175 z m 201.18203,1.08624 a 1.857095,1.857095 0 0 0 -1.31258,0.54519 l -32.96646,32.96646 a 1.857095,1.857095 0 0 0 0,2.62516 1.857095,1.857095 0 0 0 2.62671,0 l 32.96698,-32.96698 a 1.857095,1.857095 0 0 0 0,-2.62464 1.857095,1.857095 0 0 0 -1.31465,-0.54519 z m -125.74219,2.25361 a 1.857095,1.857095 0 0 0 -1.31258,0.54364 L 252.844,470.93921 a 1.857095,1.857095 0 0 0 0,2.62517 1.857095,1.857095 0 0 0 2.62464,0 l 23.36137,-23.36137 a 1.857095,1.857095 0 0 0 0,-2.62464 1.857095,1.857095 0 0 0 -1.31258,-0.54364 z m 120.87427,13.68599 a 1.857095,1.857095 0 0 0 -1.15135,0.53691 l -17.03307,17.03514 a 1.857095,1.857095 0 0 0 0,2.62516 1.857095,1.857095 0 0 0 2.62672,0 l 17.03307,-17.03307 a 1.857095,1.857095 0 0 0 0,-2.62723 1.857095,1.857095 0 0 0 -1.47537,-0.53691 z m -4.54391,15.92771 a 1.857095,1.857095 0 0 0 -1.31464,0.54311 l -1.09968,1.10123 a 1.857095,1.857095 0 0 0 0,2.62516 1.857095,1.857095 0 0 0 2.62723,0 l 1.09968,-1.09967 a 1.857095,1.857095 0 0 0 0,-2.62672 1.857095,1.857095 0 0 0 -1.31259,-0.54311 z"
       inkscape:export-filename="logo_pasta_bit_vector.svg"
       inkscape:export-xdpi="43.095951"
       inkscape:export-ydpi="43.095951" />
    <g
       aria-label="pasta::b1t_vect0r"
       id="text40686"
       style="font-size:25.4px;line-height:1.25;font-family:monospace;-inkscape-font-specification:monospace;stroke-width:0.264583"
       transform="translate(-19.17716,-0.74987245)">
      <path
         d="m 167.74848,516.00646 v -19.7104 h 1.8796 l 0.2794,1.8542 h 0.1016 q 0.5842,-0.9906 1.5494,-1.5494 0.9906,-0.5588 2.5146,-0.5588 2.4892,0 3.9878,1.778 1.4986,1.778 1.4986,5.2578 0,3.4798 -1.4986,5.2832 -1.4986,1.8034 -3.9878,1.8034 -1.4986,0 -2.4892,-0.6096 -0.9906,-0.6096 -1.5748,-1.397 h -0.1524 q 0.1524,0.9906 0.1524,2.032 v 5.8166 z m 5.842,-7.6962 q 1.905,0 2.7686,-1.2954 0.8636,-1.3208 0.8636,-3.9878 0,-2.6162 -0.8636,-3.8608 -0.8382,-1.27 -2.794,-1.27 -1.8542,0 -2.7178,1.2192 -0.8382,1.1938 -0.8382,3.4544 v 0.508 q 0,2.413 0.762,3.8354 0.7874,1.397 2.8194,1.397 z"
         id="path40697" />
      <path
         d="m 187.20489,510.16446 q -2.0066,0 -3.2512,-0.9906 -1.2192,-0.9906 -1.2192,-2.9972 0,-2.2098 1.5748,-3.302 1.6002,-1.0922 4.5974,-1.1684 l 2.921,-0.0762 v -0.5588 q 0,-1.8288 -0.9144,-2.4892 -0.9144,-0.6858 -2.4638,-0.6858 -1.0922,0 -2.0828,0.2794 -0.9906,0.2794 -1.8796,0.7874 l -0.7874,-1.7272 q 0.9652,-0.4826 2.1336,-0.8382 1.1938,-0.3556 2.7432,-0.3556 2.5654,0 3.937,1.1684 1.397,1.143 1.397,3.5814 v 9.1186 h -1.8288 l -0.254,-1.8796 h -0.1016 q -0.8382,1.0668 -1.9304,1.6002 -1.0922,0.5334 -2.5908,0.5334 z m 0.381,-1.8542 q 1.143,0 2.1082,-0.4064 0.9652,-0.4318 1.5494,-1.27 0.5842,-0.8636 0.5842,-2.159 v -1.2192 l -2.4384,0.0762 q -2.4384,0.0762 -3.4798,0.7874 -1.016,0.7112 -1.016,1.9812 0,1.1684 0.7366,1.7018 0.7366,0.508 1.9558,0.508 z"
         id="path40699" />
      <path
         d="m 203.28309,510.16446 q -1.27,0 -2.4384,-0.2286 -1.14299,-0.2286 -1.98119,-0.635 v -2.1082 q 0.889,0.4064 1.95579,0.762 1.0922,0.3302 2.5908,0.3302 1.6764,0 2.3622,-0.508 0.7112,-0.5334 0.7112,-1.524 0,-0.5334 -0.254,-0.8636 -0.2286,-0.3556 -0.9144,-0.7112 -0.6858,-0.3556 -2.0066,-0.9144 -1.3208,-0.5842 -2.2606,-1.0922 -0.9398,-0.508 -1.44779,-1.1938 -0.508,-0.7112 -0.508,-1.8034 0,-1.8034 1.37159,-2.7178 1.397,-0.9144 3.8608,-0.9144 1.1176,0 2.1336,0.2032 1.016,0.2032 2.1082,0.6604 l -0.6858,1.778 q -1.016,-0.4318 -1.8796,-0.5842 -0.8382,-0.1524 -1.6764,-0.1524 -1.5748,0 -2.3114,0.4064 -0.7112,0.4064 -0.7112,1.27 0,0.5588 0.3048,0.9398 0.3302,0.381 1.0414,0.7366 0.7366,0.3556 1.9304,0.8636 1.3462,0.5588 2.286,1.0414 0.9398,0.4826 1.4224,1.1684 0.4826,0.6604 0.4826,1.8288 0,1.9304 -1.397,2.9464 -1.3716,1.016 -4.0894,1.016 z"
         id="path40701" />
      <path
         d="m 221.6473,510.16446 q -1.4478,0 -2.5908,-0.381 -1.143,-0.381 -1.8288,-1.3462 -0.6604,-0.9652 -0.6604,-2.667 v -7.5692 h -3.7084 v -1.5748 l 3.7084,-0.4064 0.4572,-3.556 h 1.8288 v 3.6322 h 5.3086 v 1.905 h -5.3086 v 7.1374 q 0,1.5494 0.6858,2.2606 0.6858,0.7112 2.2606,0.7112 0.6604,0 1.4224,-0.127 0.762,-0.127 1.3208,-0.254 v 1.8288 q -0.6096,0.1524 -1.3462,0.2794 -0.7366,0.127 -1.5494,0.127 z"
         id="path40703" />
      <path
         d="m 232.92491,510.16446 q -2.0066,0 -3.2512,-0.9906 -1.2192,-0.9906 -1.2192,-2.9972 0,-2.2098 1.5748,-3.302 1.6002,-1.0922 4.5974,-1.1684 l 2.921,-0.0762 v -0.5588 q 0,-1.8288 -0.9144,-2.4892 -0.9144,-0.6858 -2.4638,-0.6858 -1.0922,0 -2.0828,0.2794 -0.9906,0.2794 -1.8796,0.7874 l -0.7874,-1.7272 q 0.9652,-0.4826 2.1336,-0.8382 1.1938,-0.3556 2.7432,-0.3556 2.5654,0 3.937,1.1684 1.397,1.143 1.397,3.5814 v 9.1186 h -1.8288 l -0.254,-1.8796 h -0.1016 q -0.8382,1.0668 -1.9304,1.6002 -1.0922,0.5334 -2.5908,0.5334 z m 0.381,-1.8542 q 1.143,0 2.1082,-0.4064 0.9652,-0.4318 1.5494,-1.27 0.5842,-0.8636 0.5842,-2.159 v -1.2192 l -2.4384,0.0762 q -2.4384,0.0762 -3.4798,0.7874 -1.016,0.7112 -1.016,1.9812 0,1.1684 0.7366,1.7018 0.7366,0.508 1.9558,0.508 z"
         id="path40705" />
      <path
         d="m 249.56192,499.49646 q -0.6604,0 -1.1176,-0.4064 -0.4572,-0.4064 -0.4572,-1.3208 0,-0.9652 0.4572,-1.3462 0.4572,-0.381 1.1176,-0.381 0.6604,0 1.0922,0.381 0.4572,0.381 0.4572,1.3462 0,0.9144 -0.4572,1.3208 -0.4318,0.4064 -1.0922,0.4064 z m -0.0254,10.668 q -0.6604,0 -1.1176,-0.4064 -0.4572,-0.4064 -0.4572,-1.3208 0,-0.9652 0.4572,-1.3462 0.4572,-0.381 1.1176,-0.381 0.6604,0 1.0922,0.381 0.4572,0.381 0.4572,1.3462 0,0.9144 -0.4572,1.3208 -0.4318,0.4064 -1.0922,0.4064 z"
         id="path40707" />
      <path
         d="m 264.80193,499.49646 q -0.6604,0 -1.1176,-0.4064 -0.4572,-0.4064 -0.4572,-1.3208 0,-0.9652 0.4572,-1.3462 0.4572,-0.381 1.1176,-0.381 0.6604,0 1.0922,0.381 0.4572,0.381 0.4572,1.3462 0,0.9144 -0.4572,1.3208 -0.4318,0.4064 -1.0922,0.4064 z m -0.0254,10.668 q -0.6604,0 -1.1176,-0.4064 -0.4572,-0.4064 -0.4572,-1.3208 0,-0.9652 0.4572,-1.3462 0.4572,-0.381 1.1176,-0.381 0.6604,0 1.0922,0.381 0.4572,0.381 0.4572,1.3462 0,0.9144 -0.4572,1.3208 -0.4318,0.4064 -1.0922,0.4064 z"
         id="path40709" />
      <path
         d="m 280.75315,510.16446 q -1.4986,0 -2.54,-0.5842 -1.016,-0.6096 -1.6002,-1.397 h -0.1524 l -0.2032,1.7272 h -1.8288 v -19.304 h 2.2098 v 4.6736 q 0,0.7112 -0.0254,1.397 0,0.6858 -0.0762,1.397 h 0.1016 q 0.5334,-0.8128 1.5494,-1.4224 1.016,-0.6096 2.5654,-0.6096 2.4638,0 3.9624,1.778 1.524,1.778 1.524,5.2578 0,3.5052 -1.524,5.3086 -1.524,1.778 -3.9624,1.778 z m -0.4318,-1.8542 q 1.8542,0 2.7178,-1.3462 0.8636,-1.3462 0.8636,-3.8862 0,-2.4892 -0.8636,-3.8354 -0.8636,-1.3462 -2.7432,-1.3462 -1.7526,0 -2.7178,1.3462 -0.9398,1.3208 -0.9398,3.7846 0,2.5654 0.889,3.937 0.9144,1.3462 2.794,1.3462 z"
         id="path40711" />
      <path
         d="m 291.01475,509.91046 v -1.524 l 3.81,-0.254 v -9.5504 q 0,-1.0668 0.0254,-2.3368 0.0508,-1.2954 0.0762,-2.1336 -0.4064,0.2286 -0.7366,0.381 -0.3302,0.1524 -0.9906,0.4826 l -2.1082,1.0922 -0.9906,-1.7272 5.0546,-2.5654 h 1.8542 v 16.3576 l 3.8354,0.254 v 1.524 z"
         style="fill:#89a02c"
         id="path40713" />
      <path
         d="m 313.08736,510.16446 q -1.4478,0 -2.5908,-0.381 -1.143,-0.381 -1.8288,-1.3462 -0.6604,-0.9652 -0.6604,-2.667 v -7.5692 h -3.7084 v -1.5748 l 3.7084,-0.4064 0.4572,-3.556 h 1.8288 v 3.6322 h 5.3086 v 1.905 h -5.3086 v 7.1374 q 0,1.5494 0.6858,2.2606 0.6858,0.7112 2.2606,0.7112 0.6604,0 1.4224,-0.127 0.762,-0.127 1.3208,-0.254 v 1.8288 q -0.6096,0.1524 -1.3462,0.2794 -0.7366,0.127 -1.5494,0.127 z"
         id="path40715" />
      <path
         d="m 318.11656,513.82206 v -2.032 h 15.24 v 2.032 z"
         id="path40717" />
      <path
         d="m 339.52878,509.91046 -5.0292,-13.6144 h 2.3368 l 2.8448,8.0772 q 0.2794,0.8128 0.5842,1.7018 0.3302,0.889 0.6604,1.905 h 0.0762 q 0.3302,-1.016 0.6604,-1.905 0.3556,-0.9144 0.6096,-1.7018 l 2.7686,-8.0772 h 2.3876 l -5.08,13.6144 z"
         id="path40719" />
      <path
         d="m 357.15639,510.16446 q -3.2766,0 -5.1562,-1.8034 -1.8796,-1.8288 -1.8796,-5.207 0,-2.2352 0.8128,-3.81 0.8128,-1.6002 2.2606,-2.4384 1.4478,-0.8636 3.3782,-0.8636 2.667,0 4.191,1.7272 1.5494,1.7272 1.5494,4.7244 v 1.0414 h -9.8806 q 0.0508,1.778 0.6604,2.8194 0.635,1.0414 1.7018,1.4986 1.0922,0.4318 2.5146,0.4318 1.1176,0 2.2098,-0.3048 1.0922,-0.3048 2.1844,-0.8128 v 2.032 q -1.1684,0.508 -2.3368,0.7366 -1.1684,0.2286 -2.2098,0.2286 z m 2.8702,-8.4582 q -0.0762,-1.778 -0.9652,-2.794 -0.8636,-1.016 -2.4892,-1.016 -1.7018,0 -2.7686,1.0414 -1.0414,1.016 -1.3208,2.7686 z"
         id="path40721" />
      <path
         d="m 372.42179,510.16446 q -2.9972,0 -4.7244,-1.6256 -1.7018,-1.651 -1.7018,-5.334 0,-2.6162 0.8382,-4.191 0.8636,-1.5748 2.3622,-2.2606 1.524,-0.7112 3.4544,-0.7112 1.1938,0 2.159,0.254 0.9906,0.2286 1.8542,0.6858 l -0.6858,1.8542 q -0.8128,-0.4318 -1.5748,-0.6096 -0.762,-0.2032 -1.651,-0.2032 -2.3368,0 -3.3782,1.2954 -1.0414,1.27 -1.0414,3.8354 0,2.7178 1.0922,3.8862 1.0922,1.1684 3.2512,1.1684 1.1176,0 2.1082,-0.2286 0.9906,-0.254 1.7272,-0.5842 v 2.0066 q -0.762,0.3556 -1.8796,0.5588 -1.1176,0.2032 -2.2098,0.2032 z"
         id="path40723" />
      <path
         d="m 389.28741,510.16446 q -1.4478,0 -2.5908,-0.381 -1.143,-0.381 -1.8288,-1.3462 -0.6604,-0.9652 -0.6604,-2.667 v -7.5692 h -3.7084 v -1.5748 l 3.7084,-0.4064 0.4572,-3.556 h 1.8288 v 3.6322 h 5.3086 v 1.905 h -5.3086 v 7.1374 q 0,1.5494 0.6858,2.2606 0.6858,0.7112 2.2606,0.7112 0.6604,0 1.4224,-0.127 0.762,-0.127 1.3208,-0.254 v 1.8288 q -0.6096,0.1524 -1.3462,0.2794 -0.7366,0.127 -1.5494,0.127 z"
         id="path40725" />
      <path
         d="m 401.91122,510.16446 q -3.175,0 -4.6228,-2.4638 -1.4478,-2.4892 -1.4478,-6.8834 0,-2.9464 0.6096,-5.0038 0.6096,-2.0828 1.9304,-3.175 1.3462,-1.1176 3.5306,-1.1176 3.2004,0 4.6482,2.4384 1.4732,2.4384 1.4732,6.858 0,2.921 -0.6096,5.0292 -0.6096,2.0828 -1.9558,3.2004 -1.3462,1.1176 -3.556,1.1176 z m -3.937,-9.3472 q 0,1.1176 0.0762,2.1082 0.1016,0.9652 0.2794,1.7526 l 6.0198,-10.1854 q -0.9398,-0.9652 -2.4384,-0.9652 -2.0574,0 -2.9972,1.8034 -0.9398,1.778 -0.9398,5.4864 z m 3.937,7.3406 q 2.0828,0 3.0734,-1.778 0.9906,-1.8034 0.9906,-5.5626 0,-2.6416 -0.508,-4.318 l -6.1722,10.414 q 0.9398,1.2446 2.6162,1.2446 z"
         style="fill:#89a02c"
         id="path40727" />
      <path
         d="m 411.13143,509.91046 v -1.524 l 4.1402,-0.381 v -9.8044 l -3.7338,-0.3302 v -1.5748 h 5.5626 l 0.3048,2.4892 h 0.1016 q 0.7112,-1.3462 1.5494,-2.032 0.8636,-0.7112 2.2606,-0.7112 0.8636,0 1.524,0.1524 0.6858,0.1524 1.2446,0.4064 l -0.6096,2.0066 q -0.4064,-0.2286 -0.9652,-0.381 -0.5588,-0.1778 -1.1938,-0.1778 -1.0922,0 -1.9304,0.6858 -0.8382,0.6858 -1.3208,1.8288 -0.4826,1.143 -0.4826,2.5146 v 4.9276 l 3.9624,0.381 v 1.524 z"
         id="path40729" />
      <path
         d="m 168.80682,517.0648 v -19.7104 h 1.8796 l 0.2794,1.8542 h 0.1016 q 0.5842,-0.9906 1.5494,-1.5494 0.9906,-0.5588 2.5146,-0.5588 2.4892,0 3.9878,1.778 1.4986,1.778 1.4986,5.2578 0,3.4798 -1.4986,5.2832 -1.4986,1.8034 -3.9878,1.8034 -1.4986,0 -2.4892,-0.6096 -0.9906,-0.6096 -1.5748,-1.397 h -0.1524 q 0.1524,0.9906 0.1524,2.032 v 5.8166 z m 5.842,-7.6962 q 1.905,0 2.7686,-1.2954 0.8636,-1.3208 0.8636,-3.9878 0,-2.6162 -0.8636,-3.8608 -0.8382,-1.27 -2.794,-1.27 -1.8542,0 -2.7178,1.2192 -0.8382,1.1938 -0.8382,3.4544 v 0.508 q 0,2.413 0.762,3.8354 0.7874,1.397 2.8194,1.397 z"
         id="path1110"
         style="fill:#aad400" />
      <path
         d="m 188.26323,511.2228 q -2.0066,0 -3.2512,-0.9906 -1.2192,-0.9906 -1.2192,-2.9972 0,-2.2098 1.5748,-3.302 1.6002,-1.0922 4.5974,-1.1684 l 2.921,-0.0762 v -0.5588 q 0,-1.8288 -0.9144,-2.4892 -0.9144,-0.6858 -2.4638,-0.6858 -1.0922,0 -2.0828,0.2794 -0.9906,0.2794 -1.8796,0.7874 l -0.7874,-1.7272 q 0.9652,-0.4826 2.1336,-0.8382 1.1938,-0.3556 2.7432,-0.3556 2.5654,0 3.937,1.1684 1.397,1.143 1.397,3.5814 v 9.1186 h -1.8288 l -0.254,-1.8796 h -0.1016 q -0.8382,1.0668 -1.9304,1.6002 -1.0922,0.5334 -2.5908,0.5334 z m 0.381,-1.8542 q 1.143,0 2.1082,-0.4064 0.9652,-0.4318 1.5494,-1.27 0.5842,-0.8636 0.5842,-2.159 v -1.2192 l -2.4384,0.0762 q -2.4384,0.0762 -3.4798,0.7874 -1.016,0.7112 -1.016,1.9812 0,1.1684 0.7366,1.7018 0.7366,0.508 1.9558,0.508 z"
         id="path1112"
         style="fill:#aad400" />
      <path
         d="m 204.34143,511.2228 q -1.27,0 -2.4384,-0.2286 -1.14299,-0.2286 -1.98119,-0.635 v -2.1082 q 0.889,0.4064 1.95579,0.762 1.0922,0.3302 2.5908,0.3302 1.6764,0 2.3622,-0.508 0.7112,-0.5334 0.7112,-1.524 0,-0.5334 -0.254,-0.8636 -0.2286,-0.3556 -0.9144,-0.7112 -0.6858,-0.3556 -2.0066,-0.9144 -1.3208,-0.5842 -2.2606,-1.0922 -0.9398,-0.508 -1.44779,-1.1938 -0.508,-0.7112 -0.508,-1.8034 0,-1.8034 1.37159,-2.7178 1.397,-0.9144 3.8608,-0.9144 1.1176,0 2.1336,0.2032 1.016,0.2032 2.1082,0.6604 l -0.6858,1.778 q -1.016,-0.4318 -1.8796,-0.5842 -0.8382,-0.1524 -1.6764,-0.1524 -1.5748,0 -2.3114,0.4064 -0.7112,0.4064 -0.7112,1.27 0,0.5588 0.3048,0.9398 0.3302,0.381 1.0414,0.7366 0.7366,0.3556 1.9304,0.8636 1.3462,0.5588 2.286,1.0414 0.9398,0.4826 1.4224,1.1684 0.4826,0.6604 0.4826,1.8288 0,1.9304 -1.397,2.9464 -1.3716,1.016 -4.0894,1.016 z"
         id="path1114"
         style="fill:#aad400" />
      <path
         d="m 222.70564,511.2228 q -1.4478,0 -2.5908,-0.381 -1.143,-0.381 -1.8288,-1.3462 -0.6604,-0.9652 -0.6604,-2.667 v -7.5692 h -3.7084 v -1.5748 l 3.7084,-0.4064 0.4572,-3.556 h 1.8288 v 3.6322 h 5.3086 v 1.905 h -5.3086 v 7.1374 q 0,1.5494 0.6858,2.2606 0.6858,0.7112 2.2606,0.7112 0.6604,0 1.4224,-0.127 0.762,-0.127 1.3208,-0.254 v 1.8288 q -0.6096,0.1524 -1.3462,0.2794 -0.7366,0.127 -1.5494,0.127 z"
         id="path1116"
         style="fill:#aad400" />
      <path
         d="m 233.98325,511.2228 q -2.0066,0 -3.2512,-0.9906 -1.2192,-0.9906 -1.2192,-2.9972 0,-2.2098 1.5748,-3.302 1.6002,-1.0922 4.5974,-1.1684 l 2.921,-0.0762 v -0.5588 q 0,-1.8288 -0.9144,-2.4892 -0.9144,-0.6858 -2.4638,-0.6858 -1.0922,0 -2.0828,0.2794 -0.9906,0.2794 -1.8796,0.7874 l -0.7874,-1.7272 q 0.9652,-0.4826 2.1336,-0.8382 1.1938,-0.3556 2.7432,-0.3556 2.5654,0 3.937,1.1684 1.397,1.143 1.397,3.5814 v 9.1186 h -1.8288 l -0.254,-1.8796 h -0.1016 q -0.8382,1.0668 -1.9304,1.6002 -1.0922,0.5334 -2.5908,0.5334 z m 0.381,-1.8542 q 1.143,0 2.1082,-0.4064 0.9652,-0.4318 1.5494,-1.27 0.5842,-0.8636 0.5842,-2.159 v -1.2192 l -2.4384,0.0762 q -2.4384,0.0762 -3.4798,0.7874 -1.016,0.7112 -1.016,1.9812 0,1.1684 0.7366,1.7018 0.7366,0.508 1.9558,0.508 z"
         id="path1118"
         style="fill:#aad400" />
      <path
         d="m 250.62026,500.5548 q -0.6604,0 -1.1176,-0.4064 -0.4572,-0.4064 -0.4572,-1.3208 0,-0.9652 0.4572,-1.3462 0.4572,-0.381 1.1176,-0.381 0.6604,0 1.0922,0.381 0.4572,0.381 0.4572,1.3462 0,0.9144 -0.4572,1.3208 -0.4318,0.4064 -1.0922,0.4064 z m -0.0254,10.668 q -0.6604,0 -1.1176,-0.4064 -0.4572,-0.4064 -0.4572,-1.3208 0,-0.9652 0.4572,-1.3462 0.4572,-0.381 1.1176,-0.381 0.6604,0 1.0922,0.381 0.4572,0.381 0.4572,1.3462 0,0.9144 -0.4572,1.3208 -0.4318,0.4064 -1.0922,0.4064 z"
         id="path1120"
         style="fill:#aad400" />
      <path
         d="m 265.86027,500.5548 q -0.6604,0 -1.1176,-0.4064 -0.4572,-0.4064 -0.4572,-1.3208 0,-0.9652 0.4572,-1.3462 0.4572,-0.381 1.1176,-0.381 0.6604,0 1.0922,0.381 0.4572,0.381 0.4572,1.3462 0,0.9144 -0.4572,1.3208 -0.4318,0.4064 -1.0922,0.4064 z m -0.0254,10.668 q -0.6604,0 -1.1176,-0.4064 -0.4572,-0.4064 -0.4572,-1.3208 0,-0.9652 0.4572,-1.3462 0.4572,-0.381 1.1176,-0.381 0.6604,0 1.0922,0.381 0.4572,0.381 0.4572,1.3462 0,0.9144 -0.4572,1.3208 -0.4318,0.4064 -1.0922,0.4064 z"
         id="path1122"
         style="fill:#aad400" />
      <path
         d="m 281.81149,511.2228 q -1.4986,0 -2.54,-0.5842 -1.016,-0.6096 -1.6002,-1.397 h -0.1524 l -0.2032,1.7272 h -1.8288 v -19.304 h 2.2098 v 4.6736 q 0,0.7112 -0.0254,1.397 0,0.6858 -0.0762,1.397 h 0.1016 q 0.5334,-0.8128 1.5494,-1.4224 1.016,-0.6096 2.5654,-0.6096 2.4638,0 3.9624,1.778 1.524,1.778 1.524,5.2578 0,3.5052 -1.524,5.3086 -1.524,1.778 -3.9624,1.778 z m -0.4318,-1.8542 q 1.8542,0 2.7178,-1.3462 0.8636,-1.3462 0.8636,-3.8862 0,-2.4892 -0.8636,-3.8354 -0.8636,-1.3462 -2.7432,-1.3462 -1.7526,0 -2.7178,1.3462 -0.9398,1.3208 -0.9398,3.7846 0,2.5654 0.889,3.937 0.9144,1.3462 2.794,1.3462 z"
         id="path1124"
         style="fill:#aad400" />
      <path
         d="m 292.07309,510.9688 v -1.524 l 3.81,-0.254 v -9.5504 q 0,-1.0668 0.0254,-2.3368 0.0508,-1.2954 0.0762,-2.1336 -0.4064,0.2286 -0.7366,0.381 -0.3302,0.1524 -0.9906,0.4826 l -2.1082,1.0922 -0.9906,-1.7272 5.0546,-2.5654 h 1.8542 v 16.3576 l 3.8354,0.254 v 1.524 z"
         style="fill:#aad400"
         id="path1126" />
      <path
         d="m 314.1457,511.2228 q -1.4478,0 -2.5908,-0.381 -1.143,-0.381 -1.8288,-1.3462 -0.6604,-0.9652 -0.6604,-2.667 v -7.5692 h -3.7084 v -1.5748 l 3.7084,-0.4064 0.4572,-3.556 h 1.8288 v 3.6322 h 5.3086 v 1.905 h -5.3086 v 7.1374 q 0,1.5494 0.6858,2.2606 0.6858,0.7112 2.2606,0.7112 0.6604,0 1.4224,-0.127 0.762,-0.127 1.3208,-0.254 v 1.8288 q -0.6096,0.1524 -1.3462,0.2794 -0.7366,0.127 -1.5494,0.127 z"
         id="path1128"
         style="fill:#aad400" />
      <path
         d="m 319.1749,514.8804 v -2.032 h 15.24 v 2.032 z"
         id="path1130"
         style="fill:#aad400" />
      <path
         d="m 340.58712,510.9688 -5.0292,-13.6144 h 2.3368 l 2.8448,8.0772 q 0.2794,0.8128 0.5842,1.7018 0.3302,0.889 0.6604,1.905 h 0.0762 q 0.3302,-1.016 0.6604,-1.905 0.3556,-0.9144 0.6096,-1.7018 l 2.7686,-8.0772 h 2.3876 l -5.08,13.6144 z"
         id="path1132"
         style="fill:#aad400" />
      <path
         d="m 358.21473,511.2228 q -3.2766,0 -5.1562,-1.8034 -1.8796,-1.8288 -1.8796,-5.207 0,-2.2352 0.8128,-3.81 0.8128,-1.6002 2.2606,-2.4384 1.4478,-0.8636 3.3782,-0.8636 2.667,0 4.191,1.7272 1.5494,1.7272 1.5494,4.7244 v 1.0414 h -9.8806 q 0.0508,1.778 0.6604,2.8194 0.635,1.0414 1.7018,1.4986 1.0922,0.4318 2.5146,0.4318 1.1176,0 2.2098,-0.3048 1.0922,-0.3048 2.1844,-0.8128 v 2.032 q -1.1684,0.508 -2.3368,0.7366 -1.1684,0.2286 -2.2098,0.2286 z m 2.8702,-8.4582 q -0.0762,-1.778 -0.9652,-2.794 -0.8636,-1.016 -2.4892,-1.016 -1.7018,0 -2.7686,1.0414 -1.0414,1.016 -1.3208,2.7686 z"
         id="path1134"
         style="fill:#aad400" />
      <path
         d="m 373.48013,511.2228 q -2.9972,0 -4.7244,-1.6256 -1.7018,-1.651 -1.7018,-5.334 0,-2.6162 0.8382,-4.191 0.8636,-1.5748 2.3622,-2.2606 1.524,-0.7112 3.4544,-0.7112 1.1938,0 2.159,0.254 0.9906,0.2286 1.8542,0.6858 l -0.6858,1.8542 q -0.8128,-0.4318 -1.5748,-0.6096 -0.762,-0.2032 -1.651,-0.2032 -2.3368,0 -3.3782,1.2954 -1.0414,1.27 -1.0414,3.8354 0,2.7178 1.0922,3.8862 1.0922,1.1684 3.2512,1.1684 1.1176,0 2.1082,-0.2286 0.9906,-0.254 1.7272,-0.5842 v 2.0066 q -0.762,0.3556 -1.8796,0.5588 -1.1176,0.2032 -2.2098,0.2032 z"
         id="path1136"
         style="fill:#aad400" />
      <path
         d="m 390.34575,511.2228 q -1.4478,0 -2.5908,-0.381 -1.143,-0.381 -1.8288,-1.3462 -0.6604,-0.9652 -0.6604,-2.667 v -7.5692 h -3.7084 v -1.5748 l 3.7084,-0.4064 0.4572,-3.556 h 1.8288 v 3.6322 h 5.3086 v 1.905 h -5.3086 v 7.1374 q 0,1.5494 0.6858,2.2606 0.6858,0.7112 2.2606,0.7112 0.6604,0 1.4224,-0.127 0.762,-0.127 1.3208,-0.254 v 1.8288 q -0.6096,0.1524 -1.3462,0.2794 -0.7366,0.127 -1.5494,0.127 z"
         id="path1138"
         style="fill:#aad400" />
      <path
         d="m 402.96956,511.2228 q -3.175,0 -4.6228,-2.4638 -1.4478,-2.4892 -1.4478,-6.8834 0,-2.9464 0.6096,-5.0038 0.6096,-2.0828 1.9304,-3.175 1.3462,-1.1176 3.5306,-1.1176 3.2004,0 4.6482,2.4384 1.4732,2.4384 1.4732,6.858 0,2.921 -0.6096,5.0292 -0.6096,2.0828 -1.9558,3.2004 -1.3462,1.1176 -3.556,1.1176 z m -3.937,-9.3472 q 0,1.1176 0.0762,2.1082 0.1016,0.9652 0.2794,1.7526 l 6.0198,-10.1854 q -0.9398,-0.9652 -2.4384,-0.9652 -2.0574,0 -2.9972,1.8034 -0.9398,1.778 -0.9398,5.4864 z m 3.937,7.3406 q 2.0828,0 3.0734,-1.778 0.9906,-1.8034 0.9906,-5.5626 0,-2.6416 -0.508,-4.318 l -6.1722,10.414 q 0.9398,1.2446 2.6162,1.2446 z"
         style="fill:#aad400"
         id="path1140" />
      <path
         d="m 412.18977,510.9688 v -1.524 l 4.1402,-0.381 v -9.8044 l -3.7338,-0.3302 v -1.5748 h 5.5626 l 0.3048,2.4892 h 0.1016 q 0.7112,-1.3462 1.5494,-2.032 0.8636,-0.7112 2.2606,-0.7112 0.8636,0 1.524,0.1524 0.6858,0.1524 1.2446,0.4064 l -0.6096,2.0066 q -0.4064,-0.2286 -0.9652,-0.381 -0.5588,-0.1778 -1.1938,-0.1778 -1.0922,0 -1.9304,0.6858 -0.8382,0.6858 -1.3208,1.8288 -0.4826,1.143 -0.4826,2.5146 v 4.9276 l 3.9624,0.381 v 1.524 z"
         id="path1142"
         style="fill:#aad400" />
    </g>
  </g>
</svg>
