<?xml version="1.0" encoding="UTF-8" standalone="no"?>
<!-- Created with Inkscape (http://www.inkscape.org/) -->

<svg
   width="594mm"
   height="841mm"
   viewBox="0 0 594 841"
   version="1.1"
   id="svg5"
   inkscape:version="1.2.1 (9c6d41e410, 2022-07-14)"
   sodipodi:docname="logo_pasta_bit_vector.svg"
   xmlns:inkscape="http://www.inkscape.org/namespaces/inkscape"
   xmlns:sodipodi="http://sodipodi.sourceforge.net/DTD/sodipodi-0.dtd"
   xmlns="http://www.w3.org/2000/svg"
   xmlns:svg="http://www.w3.org/2000/svg">
  <sodipodi:namedview
     id="namedview7"
     pagecolor="#ffffff"
     bordercolor="#999999"
     borderopacity="1"
     inkscape:showpageshadow="0"
     inkscape:pageopacity="0"
     inkscape:pagecheckerboard="0"
     inkscape:deskcolor="#d1d1d1"
     inkscape:document-units="px"
     showgrid="false"
     inkscape:zoom="0.41757352"
     inkscape:cx="-51.487939"
     inkscape:cy="1865.5397"
     inkscape:window-width="2556"
     inkscape:window-height="1401"
     inkscape:window-x="0"
     inkscape:window-y="578"
     inkscape:window-maximized="1"
     inkscape:current-layer="layer1">
    <inkscape:grid
       type="xygrid"
       id="grid9"
       originx="0"
       originy="0" />
  </sodipodi:namedview>
  <defs
     id="defs2" />
  <g
     inkscape:label="Layer 1"
     inkscape:groupmode="layer"
     id="layer1">
    <path
       id="path35651"
       style="color:#000000;fill:#89a02c;stroke-linecap:round;stroke:#445016"
       d="M 302.29318 309.994 A 1.857095 1.857095 0 0 0 300.97853 310.53918 L 291.71501 319.80477 A 1.857095 1.857095 0 0 0 291.71501 322.42993 A 1.857095 1.857095 0 0 0 294.33966 322.42993 L 303.60524 313.1659 A 1.857095 1.857095 0 0 0 303.60524 310.53918 A 1.857095 1.857095 0 0 0 302.29318 309.994 z M 403.3299 309.994 A 1.857095 1.857095 0 0 0 402.01732 310.53918 L 394.61932 317.93563 A 1.857095 1.857095 0 0 0 394.61932 320.56235 A 1.857095 1.857095 0 0 0 397.24604 320.56235 L 404.64248 313.1659 A 1.857095 1.857095 0 0 0 404.64248 310.53918 A 1.857095 1.857095 0 0 0 403.3299 309.994 z M 414.55661 309.994 A 1.857095 1.857095 0 0 0 413.24403 310.53918 L 391.22056 332.56265 A 1.857095 1.857095 0 0 0 391.22056 335.18729 A 1.857095 1.857095 0 0 0 393.84573 335.18729 L 415.86919 313.1659 A 1.857095 1.857095 0 0 0 415.86919 310.53918 A 1.857095 1.857095 0 0 0 414.55661 309.994 z M 156.34756 309.99607 A 1.857095 1.857095 0 0 0 155.03498 310.54125 L 149.61309 315.96314 A 1.857095 1.857095 0 0 0 149.61309 318.58779 A 1.857095 1.857095 0 0 0 152.23825 318.58779 L 157.66221 313.1659 A 1.857095 1.857095 0 0 0 157.66221 310.54125 A 1.857095 1.857095 0 0 0 156.34756 309.99607 z M 201.25387 309.99607 A 1.857095 1.857095 0 0 0 199.94128 310.53918 L 149.61309 360.86893 A 1.857095 1.857095 0 0 0 149.61309 363.49409 A 1.857095 1.857095 0 0 0 152.23825 363.49409 L 202.56645 313.1659 A 1.857095 1.857095 0 0 0 202.56645 310.53918 A 1.857095 1.857095 0 0 0 201.25387 309.99607 z M 324.744 309.99607 A 1.857095 1.857095 0 0 0 323.43142 310.53918 L 296.83408 337.13653 A 1.857095 1.857095 0 0 0 296.83408 339.76376 A 1.857095 1.857095 0 0 0 299.46079 339.76376 L 326.05865 313.1659 A 1.857095 1.857095 0 0 0 326.05865 310.53918 A 1.857095 1.857095 0 0 0 324.744 309.99607 z M 335.97071 309.99607 A 1.857095 1.857095 0 0 0 334.65813 310.53918 L 299.39465 345.80267 A 1.857095 1.857095 0 0 0 299.39465 348.4299 A 1.857095 1.857095 0 0 0 302.01929 348.4299 L 337.28536 313.1659 A 1.857095 1.857095 0 0 0 337.28536 310.53918 A 1.857095 1.857095 0 0 0 335.97071 309.99607 z M 437.01002 309.99607 A 1.857095 1.857095 0 0 0 435.69537 310.53918 L 384.42408 361.81254 A 1.857095 1.857095 0 0 0 384.42408 364.4377 A 1.857095 1.857095 0 0 0 387.04873 364.4377 L 438.32208 313.1659 A 1.857095 1.857095 0 0 0 438.32208 310.53918 A 1.857095 1.857095 0 0 0 437.01002 309.99607 z M 190.02613 309.99658 A 1.857095 1.857095 0 0 0 188.71303 310.54125 L 149.61309 349.64067 A 1.857095 1.857095 0 0 0 149.61309 352.26739 A 1.857095 1.857095 0 0 0 152.23825 352.26739 L 191.33974 313.1659 A 1.857095 1.857095 0 0 0 191.33974 310.54125 A 1.857095 1.857095 0 0 0 190.02613 309.99658 z M 290.98844 309.99658 A 1.857095 1.857095 0 0 0 289.75182 310.53918 L 289.15444 311.13656 A 1.857095 1.857095 0 0 0 289.15444 313.76379 A 1.857095 1.857095 0 0 0 291.78116 313.76379 L 292.37905 313.1659 A 1.857095 1.857095 0 0 0 292.37905 310.53918 A 1.857095 1.857095 0 0 0 290.98844 309.99658 z M 313.35658 310.00175 A 1.857095 1.857095 0 0 0 312.20523 310.53918 L 294.27351 328.47091 A 1.857095 1.857095 0 0 0 294.27351 331.09762 A 1.857095 1.857095 0 0 0 296.90022 331.09762 L 314.83195 313.1659 A 1.857095 1.857095 0 0 0 314.83195 310.53918 A 1.857095 1.857095 0 0 0 313.35658 310.00175 z M 167.41252 310.00485 A 1.857095 1.857095 0 0 0 166.26169 310.54125 L 149.61309 327.18933 A 1.857095 1.857095 0 0 0 149.61309 329.81449 A 1.857095 1.857095 0 0 0 152.23825 329.81449 L 168.88685 313.1659 A 1.857095 1.857095 0 0 0 168.88685 310.54125 A 1.857095 1.857095 0 0 0 167.41252 310.00485 z M 425.57402 310.0064 A 1.857095 1.857095 0 0 0 424.46866 310.53918 L 387.82232 347.18759 A 1.857095 1.857095 0 0 0 387.82232 349.81276 A 1.857095 1.857095 0 0 0 390.44749 349.81276 L 427.09589 313.1659 A 1.857095 1.857095 0 0 0 427.09589 310.53918 A 1.857095 1.857095 0 0 0 425.57402 310.0064 z M 178.59323 310.0095 A 1.857095 1.857095 0 0 0 177.48839 310.54125 L 149.61309 338.41604 A 1.857095 1.857095 0 0 0 149.61309 341.0412 A 1.857095 1.857095 0 0 0 152.23825 341.0412 L 180.11304 313.1659 A 1.857095 1.857095 0 0 0 180.11304 310.54125 A 1.857095 1.857095 0 0 0 178.59323 310.0095 z M 212.46662 310.01002 A 1.857095 1.857095 0 0 0 211.15455 310.55262 L 149.61309 372.09357 A 1.857095 1.857095 0 0 0 149.61309 374.7208 A 1.857095 1.857095 0 0 0 152.23825 374.7208 L 213.7792 313.17985 A 1.857095 1.857095 0 0 0 213.7792 310.55262 A 1.857095 1.857095 0 0 0 212.46662 310.01002 z M 223.28301 310.41775 A 1.857095 1.857095 0 0 0 221.97095 310.96293 L 149.61309 383.32027 A 1.857095 1.857095 0 0 0 149.61309 385.9475 A 1.857095 1.857095 0 0 0 152.23825 385.9475 L 224.59766 313.58809 A 1.857095 1.857095 0 0 0 224.59766 310.96293 A 1.857095 1.857095 0 0 0 223.28301 310.41775 z M 233.3811 311.54688 A 1.857095 1.857095 0 0 0 232.06852 312.09154 L 199.55268 344.60739 A 1.857095 1.857095 0 0 0 199.55268 347.23255 A 1.857095 1.857095 0 0 0 202.17991 347.23255 L 234.69524 314.71877 A 1.857095 1.857095 0 0 0 234.69524 312.09154 A 1.857095 1.857095 0 0 0 233.3811 311.54688 z M 242.66581 313.49043 A 1.857095 1.857095 0 0 0 241.35168 314.03303 L 210.73804 344.64821 A 1.857095 1.857095 0 0 0 210.73804 347.27544 A 1.857095 1.857095 0 0 0 213.3632 347.27544 L 243.97839 316.66026 A 1.857095 1.857095 0 0 0 243.97839 314.03303 A 1.857095 1.857095 0 0 0 242.66581 313.49043 z M 250.82345 316.36312 A 1.857095 1.857095 0 0 0 249.71861 316.89435 L 220.45683 346.15613 A 1.857095 1.857095 0 0 0 220.45683 348.78129 A 1.857095 1.857095 0 0 0 223.08406 348.78129 L 252.34377 319.51952 A 1.857095 1.857095 0 0 0 252.34377 316.89435 A 1.857095 1.857095 0 0 0 250.82345 316.36312 z M 440.91004 317.32017 A 1.857095 1.857095 0 0 0 439.59746 317.86535 L 381.02532 376.43749 A 1.857095 1.857095 0 0 0 381.02532 379.06265 A 1.857095 1.857095 0 0 0 383.65048 379.06265 L 442.22262 320.49 A 1.857095 1.857095 0 0 0 442.22262 317.86535 A 1.857095 1.857095 0 0 0 440.91004 317.32017 z M 339.18188 318.0116 A 1.857095 1.857095 0 0 0 337.86723 318.55678 L 301.95315 354.47087 A 1.857095 1.857095 0 0 0 301.95315 357.09552 A 1.857095 1.857095 0 0 0 304.57986 357.09552 L 340.49395 321.18143 A 1.857095 1.857095 0 0 0 340.49395 318.55678 A 1.857095 1.857095 0 0 0 339.18188 318.0116 z M 258.32222 320.28536 A 1.857095 1.857095 0 0 0 257.00964 320.83003 L 227.01767 350.82045 A 1.857095 1.857095 0 0 0 227.01767 353.44716 A 1.857095 1.857095 0 0 0 229.64438 353.44716 L 259.6348 323.45726 A 1.857095 1.857095 0 0 0 259.6348 320.83003 A 1.857095 1.857095 0 0 0 258.32222 320.28536 z M 264.42985 325.40443 A 1.857095 1.857095 0 0 0 263.11727 325.9491 L 229.06664 360.00025 A 1.857095 1.857095 0 0 0 229.06664 362.62696 A 1.857095 1.857095 0 0 0 231.69128 362.62696 L 265.74244 328.57426 A 1.857095 1.857095 0 0 0 265.74244 325.9491 A 1.857095 1.857095 0 0 0 264.42985 325.40443 z M 341.34971 327.07048 A 1.857095 1.857095 0 0 0 340.03713 327.61308 L 304.51371 363.13649 A 1.857095 1.857095 0 0 0 304.51371 365.76372 A 1.857095 1.857095 0 0 0 307.14043 365.76372 L 342.66229 330.24031 A 1.857095 1.857095 0 0 0 342.66229 327.61308 A 1.857095 1.857095 0 0 0 341.34971 327.07048 z M 269.166 331.89654 A 1.857095 1.857095 0 0 0 267.85135 332.43966 L 149.61309 450.67947 A 1.857095 1.857095 0 0 0 149.61309 453.30463 A 1.857095 1.857095 0 0 0 152.23825 453.30463 L 270.47858 335.06637 A 1.857095 1.857095 0 0 0 270.47858 332.43966 A 1.857095 1.857095 0 0 0 269.166 331.89654 z M 435.91293 333.27837 A 1.857095 1.857095 0 0 0 434.89077 333.79875 L 377.55473 391.13272 A 1.857095 1.857095 0 0 0 377.55473 393.75994 A 1.857095 1.857095 0 0 0 380.18145 393.75994 L 437.51541 336.42391 A 1.857095 1.857095 0 0 0 437.51541 333.79875 A 1.857095 1.857095 0 0 0 435.91293 333.27837 z M 343.31031 336.13917 A 1.857095 1.857095 0 0 0 342.20495 336.67196 L 307.07428 371.80263 A 1.857095 1.857095 0 0 0 307.07428 374.42986 A 1.857095 1.857095 0 0 0 309.69944 374.42986 L 344.83218 339.29712 A 1.857095 1.857095 0 0 0 344.83218 336.67196 A 1.857095 1.857095 0 0 0 343.31031 336.13917 z M 272.34358 339.94359 A 1.857095 1.857095 0 0 0 271.02945 340.48826 L 203.93949 407.57822 A 1.857095 1.857095 0 0 0 203.93949 410.20494 A 1.857095 1.857095 0 0 0 206.5662 410.20494 L 273.65616 343.11497 A 1.857095 1.857095 0 0 0 273.65616 340.48826 A 1.857095 1.857095 0 0 0 272.34358 339.94359 z M 345.68743 345.18565 A 1.857095 1.857095 0 0 0 344.37485 345.72877 L 309.63278 380.46877 A 1.857095 1.857095 0 0 0 309.63278 383.09548 A 1.857095 1.857095 0 0 0 312.26001 383.09548 L 347.00001 348.35548 A 1.857095 1.857095 0 0 0 347.00001 345.72877 A 1.857095 1.857095 0 0 0 345.68743 345.18565 z M 431.49718 349.18644 A 1.857095 1.857095 0 0 0 430.18356 349.73059 L 374.25416 405.65999 A 1.857095 1.857095 0 0 0 374.25416 408.28722 A 1.857095 1.857095 0 0 0 376.8788 408.28722 L 432.81079 352.3573 A 1.857095 1.857095 0 0 0 432.81079 349.73059 A 1.857095 1.857095 0 0 0 431.49718 349.18644 z M 195.31521 349.61225 A 1.857095 1.857095 0 0 0 194.00211 350.1564 L 149.61309 394.54698 A 1.857095 1.857095 0 0 0 149.61309 397.17369 A 1.857095 1.857095 0 0 0 152.23825 397.17369 L 196.62882 352.78312 A 1.857095 1.857095 0 0 0 196.62882 350.1564 A 1.857095 1.857095 0 0 0 195.31521 349.61225 z M 273.71869 349.79467 A 1.857095 1.857095 0 0 0 272.40611 350.33986 L 215.08196 407.66194 A 1.857095 1.857095 0 0 0 215.08196 410.28917 A 1.857095 1.857095 0 0 0 217.70919 410.28917 L 275.03127 352.96502 A 1.857095 1.857095 0 0 0 275.03127 350.33986 A 1.857095 1.857095 0 0 0 273.71869 349.79467 z M 347.85525 354.24194 A 1.857095 1.857095 0 0 0 346.54319 354.78713 L 312.19335 389.13697 A 1.857095 1.857095 0 0 0 312.19335 391.76162 A 1.857095 1.857095 0 0 0 314.82006 391.76162 L 349.1699 357.41229 A 1.857095 1.857095 0 0 0 349.1699 354.78713 A 1.857095 1.857095 0 0 0 347.85525 354.24194 z M 195.31521 360.83844 A 1.857095 1.857095 0 0 0 194.00211 361.38259 L 149.61309 405.77368 A 1.857095 1.857095 0 0 0 149.61309 408.40039 A 1.857095 1.857095 0 0 0 152.23825 408.40039 L 196.62882 364.00982 A 1.857095 1.857095 0 0 0 196.62882 361.38259 A 1.857095 1.857095 0 0 0 195.31521 360.83844 z M 272.16582 362.57425 A 1.857095 1.857095 0 0 0 270.85375 363.11737 L 246.07232 387.89829 A 1.857095 1.857095 0 0 0 245.54419 389.04809 A 1.857095 1.857095 0 0 0 244.39283 389.57984 L 224.8731 409.09751 A 1.857095 1.857095 0 0 0 224.8731 411.72474 A 1.857095 1.857095 0 0 0 227.49981 411.72474 L 247.01748 392.205 A 1.857095 1.857095 0 0 0 247.55388 391.0521 A 1.857095 1.857095 0 0 0 248.69748 390.52552 L 273.48046 365.74408 A 1.857095 1.857095 0 0 0 273.48046 363.11737 A 1.857095 1.857095 0 0 0 272.16582 362.57425 z M 350.02515 363.30082 A 1.857095 1.857095 0 0 0 348.71101 363.84394 L 314.75391 397.80259 A 1.857095 1.857095 0 0 0 314.75391 400.42982 A 1.857095 1.857095 0 0 0 317.37908 400.42982 L 351.33773 366.47065 A 1.857095 1.857095 0 0 0 351.33773 363.84394 A 1.857095 1.857095 0 0 0 350.02515 363.30082 z M 426.791 365.11932 A 1.857095 1.857095 0 0 0 425.47842 365.66192 L 370.96857 420.17177 A 1.857095 1.857095 0 0 0 370.96857 422.79693 A 1.857095 1.857095 0 0 0 373.5958 422.79693 L 428.10359 368.28915 A 1.857095 1.857095 0 0 0 428.10359 365.66192 A 1.857095 1.857095 0 0 0 426.791 365.11932 z M 195.31521 372.06515 A 1.857095 1.857095 0 0 0 194.00211 372.6093 L 149.61309 416.99987 A 1.857095 1.857095 0 0 0 149.61309 419.6271 A 1.857095 1.857095 0 0 0 152.23825 419.6271 L 196.62882 375.23653 A 1.857095 1.857095 0 0 0 196.62882 372.6093 A 1.857095 1.857095 0 0 0 195.31521 372.06515 z M 352.19349 372.35763 A 1.857095 1.857095 0 0 0 350.88091 372.9023 L 317.31241 406.46873 A 1.857095 1.857095 0 0 0 317.31241 409.09544 A 1.857095 1.857095 0 0 0 319.93964 409.09544 L 353.50607 375.52953 A 1.857095 1.857095 0 0 0 353.50607 372.9023 A 1.857095 1.857095 0 0 0 352.19349 372.35763 z M 214.00399 375.83029 A 1.857095 1.857095 0 0 0 212.69141 376.37289 L 149.61309 439.45328 A 1.857095 1.857095 0 0 0 149.61309 442.07999 A 1.857095 1.857095 0 0 0 152.23825 442.07999 L 215.31812 379.00012 A 1.857095 1.857095 0 0 0 215.31812 376.37289 A 1.857095 1.857095 0 0 0 214.00399 375.83029 z M 202.54371 376.06335 A 1.857095 1.857095 0 0 0 201.23061 376.6075 L 149.61309 428.22657 A 1.857095 1.857095 0 0 0 149.61309 430.85329 A 1.857095 1.857095 0 0 0 152.23825 430.85329 L 203.85732 379.23422 A 1.857095 1.857095 0 0 0 203.85732 376.6075 A 1.857095 1.857095 0 0 0 202.54371 376.06335 z M 422.08483 381.05168 A 1.857095 1.857095 0 0 0 420.77173 381.59583 L 367.43339 434.93366 A 1.857095 1.857095 0 0 0 366.91507 436.05866 A 1.857095 1.857095 0 0 0 365.78336 436.5842 L 335.23225 467.13479 A 1.857095 1.857095 0 0 0 335.23225 469.76151 A 1.857095 1.857095 0 0 0 337.85948 469.76151 L 368.41007 439.21092 A 1.857095 1.857095 0 0 0 368.94492 438.07662 A 1.857095 1.857095 0 0 0 370.06062 437.55882 L 423.39845 384.22254 A 1.857095 1.857095 0 0 0 423.39845 381.59583 A 1.857095 1.857095 0 0 0 422.08483 381.05168 z M 354.36132 381.416 A 1.857095 1.857095 0 0 0 353.04873 381.96118 L 319.87298 415.13693 A 1.857095 1.857095 0 0 0 319.87298 417.76158 A 1.857095 1.857095 0 0 0 322.50021 417.76158 L 355.67596 384.58583 A 1.857095 1.857095 0 0 0 355.67596 381.96118 A 1.857095 1.857095 0 0 0 354.36132 381.416 z M 356.59581 390.40821 A 1.857095 1.857095 0 0 0 355.28322 390.95288 L 322.43355 423.80256 A 1.857095 1.857095 0 0 0 322.43355 426.42772 A 1.857095 1.857095 0 0 0 325.05871 426.42772 L 357.90839 393.57804 A 1.857095 1.857095 0 0 0 357.90839 390.95288 A 1.857095 1.857095 0 0 0 356.59581 390.40821 z M 254.59841 391.36784 A 1.857095 1.857095 0 0 0 253.28532 391.912 L 232.13674 413.06264 A 1.857095 1.857095 0 0 0 232.13674 415.68729 A 1.857095 1.857095 0 0 0 234.7619 415.68729 L 255.91203 394.53923 A 1.857095 1.857095 0 0 0 255.91203 391.912 A 1.857095 1.857095 0 0 0 254.59841 391.36784 z M 262.48217 394.71079 A 1.857095 1.857095 0 0 0 261.17011 395.25391 L 235.91997 420.50405 A 1.857095 1.857095 0 0 0 235.91997 423.12869 A 1.857095 1.857095 0 0 0 238.54668 423.12869 L 263.79475 397.88062 A 1.857095 1.857095 0 0 0 263.79475 395.25391 A 1.857095 1.857095 0 0 0 262.48217 394.71079 z M 417.37866 396.98455 A 1.857095 1.857095 0 0 0 416.06659 397.52716 L 337.79282 475.80093 A 1.857095 1.857095 0 0 0 337.79282 478.42765 A 1.857095 1.857095 0 0 0 340.41798 478.42765 L 418.69124 400.15439 A 1.857095 1.857095 0 0 0 418.69124 397.52716 A 1.857095 1.857095 0 0 0 417.37866 396.98455 z M 268.98151 399.24178 A 1.857095 1.857095 0 0 0 267.87719 399.77353 L 235.27556 432.37516 A 1.857095 1.857095 0 0 0 235.27556 435.00187 A 1.857095 1.857095 0 0 0 237.90227 435.00187 L 270.50184 402.40024 A 1.857095 1.857095 0 0 0 270.50184 399.77353 A 1.857095 1.857095 0 0 0 268.98151 399.24178 z M 358.51093 399.52497 A 1.857095 1.857095 0 0 0 357.40609 400.05672 L 324.99412 432.46869 A 1.857095 1.857095 0 0 0 324.99412 435.09386 A 1.857095 1.857095 0 0 0 327.61928 435.09386 L 360.03125 402.68188 A 1.857095 1.857095 0 0 0 360.03125 400.05672 A 1.857095 1.857095 0 0 0 358.51093 399.52497 z M 274.56825 405.07605 A 1.857095 1.857095 0 0 0 273.25567 405.62124 L 200.58414 478.29277 A 1.857095 1.857095 0 0 0 200.58414 480.91793 A 1.857095 1.857095 0 0 0 203.21085 480.91793 L 275.8829 408.24588 A 1.857095 1.857095 0 0 0 275.8829 405.62124 A 1.857095 1.857095 0 0 0 274.56825 405.07605 z M 360.76558 408.69133 A 1.857095 1.857095 0 0 0 359.45299 409.23652 L 327.55262 441.13483 A 1.857095 1.857095 0 0 0 327.55262 443.76154 A 1.857095 1.857095 0 0 0 330.17985 443.76154 L 362.07816 411.86117 A 1.857095 1.857095 0 0 0 362.07816 409.23652 A 1.857095 1.857095 0 0 0 360.76558 408.69133 z M 278.43572 412.43736 A 1.857095 1.857095 0 0 0 277.12107 412.98254 L 211.81033 478.29277 A 1.857095 1.857095 0 0 0 211.81033 480.91793 A 1.857095 1.857095 0 0 0 214.43756 480.91793 L 279.7483 415.60719 A 1.857095 1.857095 0 0 0 279.7483 412.98254 A 1.857095 1.857095 0 0 0 278.43572 412.43736 z M 412.67197 412.91795 A 1.857095 1.857095 0 0 0 411.35939 413.46107 L 346.52717 478.29277 A 1.857095 1.857095 0 0 0 346.52717 480.91793 A 1.857095 1.857095 0 0 0 349.1544 480.91793 L 413.98455 416.08778 A 1.857095 1.857095 0 0 0 413.98455 413.46107 A 1.857095 1.857095 0 0 0 412.67197 412.91795 z M 195.31624 416.97248 A 1.857095 1.857095 0 0 0 194.00211 417.5156 L 149.61154 461.90617 A 1.857095 1.857095 0 0 0 149.61154 464.53134 A 1.857095 1.857095 0 0 0 152.23825 464.53134 L 196.62882 420.14283 A 1.857095 1.857095 0 0 0 196.62882 417.5156 A 1.857095 1.857095 0 0 0 195.31624 416.97248 z M 362.60061 417.88612 A 1.857095 1.857095 0 0 0 361.49628 418.41787 L 330.11318 449.80252 A 1.857095 1.857095 0 0 0 330.11318 452.42768 A 1.857095 1.857095 0 0 0 332.73835 452.42768 L 364.12093 421.0451 A 1.857095 1.857095 0 0 0 364.12093 418.41787 A 1.857095 1.857095 0 0 0 362.60061 417.88612 z M 280.59373 421.50399 A 1.857095 1.857095 0 0 0 279.28114 422.04866 L 223.35174 477.97858 A 1.857095 1.857095 0 0 0 223.35174 480.60529 A 1.857095 1.857095 0 0 0 225.97639 480.60529 L 281.90837 424.67382 A 1.857095 1.857095 0 0 0 281.90837 422.04866 A 1.857095 1.857095 0 0 0 280.59373 421.50399 z M 364.89039 427.01941 A 1.857095 1.857095 0 0 0 363.57832 427.56253 L 332.67168 458.46866 A 1.857095 1.857095 0 0 0 332.67168 461.09382 A 1.857095 1.857095 0 0 0 335.29891 461.09382 L 366.20504 430.18925 A 1.857095 1.857095 0 0 0 366.20504 427.56253 A 1.857095 1.857095 0 0 0 364.89039 427.01941 z M 195.31521 428.19815 A 1.857095 1.857095 0 0 0 194.00211 428.74231 L 149.61309 473.13288 A 1.857095 1.857095 0 0 0 149.61309 475.75804 A 1.857095 1.857095 0 0 0 152.23825 475.75804 L 196.62882 431.36902 A 1.857095 1.857095 0 0 0 196.62882 428.74231 A 1.857095 1.857095 0 0 0 195.31521 428.19815 z M 407.96683 428.84979 A 1.857095 1.857095 0 0 0 406.65218 429.3924 L 357.75387 478.29277 A 1.857095 1.857095 0 0 0 357.75387 480.91793 A 1.857095 1.857095 0 0 0 360.3811 480.91793 L 409.27941 432.01963 A 1.857095 1.857095 0 0 0 409.27941 429.3924 A 1.857095 1.857095 0 0 0 407.96683 428.84979 z M 280.8242 432.50022 A 1.857095 1.857095 0 0 0 279.51162 433.04489 L 236.30857 476.24793 A 1.857095 1.857095 0 0 0 236.30857 478.87516 A 1.857095 1.857095 0 0 0 238.93374 478.87516 L 282.13678 435.67212 A 1.857095 1.857095 0 0 0 282.13678 433.04489 A 1.857095 1.857095 0 0 0 280.8242 432.50022 z M 195.31624 439.42382 A 1.857095 1.857095 0 0 0 194.00211 439.96849 L 155.6799 478.29277 A 1.857095 1.857095 0 0 0 155.6799 480.91793 A 1.857095 1.857095 0 0 0 158.30455 480.91793 L 196.62882 442.59572 A 1.857095 1.857095 0 0 0 196.62882 439.96849 A 1.857095 1.857095 0 0 0 195.31624 439.42382 z M 226.85179 441.56633 A 1.857095 1.857095 0 0 0 225.53921 442.11152 L 189.35743 478.29277 A 1.857095 1.857095 0 0 0 189.35743 480.91793 A 1.857095 1.857095 0 0 0 191.98415 480.91793 L 228.16592 444.73823 A 1.857095 1.857095 0 0 0 228.16592 442.11152 A 1.857095 1.857095 0 0 0 226.85179 441.56633 z M 213.52754 443.66594 A 1.857095 1.857095 0 0 0 212.21495 444.20906 L 178.13073 478.29277 A 1.857095 1.857095 0 0 0 178.13073 480.91793 A 1.857095 1.857095 0 0 0 180.75796 480.91793 L 214.84167 446.83577 A 1.857095 1.857095 0 0 0 214.84167 444.20906 A 1.857095 1.857095 0 0 0 213.52754 443.66594 z M 202.07759 443.69488 A 1.857095 1.857095 0 0 0 200.97275 444.22663 L 166.90454 478.29277 A 1.857095 1.857095 0 0 0 166.90454 480.91793 A 1.857095 1.857095 0 0 0 169.53125 480.91793 L 203.59791 446.85179 A 1.857095 1.857095 0 0 0 203.59791 444.22663 A 1.857095 1.857095 0 0 0 202.07759 443.69488 z M 403.25962 444.78112 A 1.857095 1.857095 0 0 0 401.94704 445.32631 L 368.98058 478.29277 A 1.857095 1.857095 0 0 0 368.98058 480.91793 A 1.857095 1.857095 0 0 0 371.60729 480.91793 L 404.57427 447.95095 A 1.857095 1.857095 0 0 0 404.57427 445.32631 A 1.857095 1.857095 0 0 0 403.25962 444.78112 z M 277.51743 447.03473 A 1.857095 1.857095 0 0 0 276.20485 447.57837 L 252.844 470.93921 A 1.857095 1.857095 0 0 0 252.844 473.56438 A 1.857095 1.857095 0 0 0 255.46864 473.56438 L 278.83001 450.20301 A 1.857095 1.857095 0 0 0 278.83001 447.57837 A 1.857095 1.857095 0 0 0 277.51743 447.03473 z M 398.3917 460.72072 A 1.857095 1.857095 0 0 0 397.24035 461.25763 L 380.20728 478.29277 A 1.857095 1.857095 0 0 0 380.20728 480.91793 A 1.857095 1.857095 0 0 0 382.834 480.91793 L 399.86707 463.88486 A 1.857095 1.857095 0 0 0 399.86707 461.25763 A 1.857095 1.857095 0 0 0 398.3917 460.72072 z M 393.84779 476.64843 A 1.857095 1.857095 0 0 0 392.53315 477.19154 L 391.43347 478.29277 A 1.857095 1.857095 0 0 0 391.43347 480.91793 A 1.857095 1.857095 0 0 0 394.0607 480.91793 L 395.16038 479.81826 A 1.857095 1.857095 0 0 0 395.16038 477.19154 A 1.857095 1.857095 0 0 0 393.84779 476.64843 z "
       inkscape:export-filename="logo_pasta_bit_vector.svg"
       inkscape:export-xdpi="96"
       inkscape:export-ydpi="96" />
    <g
       aria-label="pasta::b1t_vect0r"
       id="text40686"
       style="font-size:25.4px;line-height:1.25;font-family:monospace;-inkscape-font-specification:monospace;stroke-width:0.264583"
       transform="translate(-19.17716,-0.74987245)">
      <path
         d="m 167.74848,516.00646 v -19.7104 h 1.8796 l 0.2794,1.8542 h 0.1016 q 0.5842,-0.9906 1.5494,-1.5494 0.9906,-0.5588 2.5146,-0.5588 2.4892,0 3.9878,1.778 1.4986,1.778 1.4986,5.2578 0,3.4798 -1.4986,5.2832 -1.4986,1.8034 -3.9878,1.8034 -1.4986,0 -2.4892,-0.6096 -0.9906,-0.6096 -1.5748,-1.397 h -0.1524 q 0.1524,0.9906 0.1524,2.032 v 5.8166 z m 5.842,-7.6962 q 1.905,0 2.7686,-1.2954 0.8636,-1.3208 0.8636,-3.9878 0,-2.6162 -0.8636,-3.8608 -0.8382,-1.27 -2.794,-1.27 -1.8542,0 -2.7178,1.2192 -0.8382,1.1938 -0.8382,3.4544 v 0.508 q 0,2.413 0.762,3.8354 0.7874,1.397 2.8194,1.397 z"
         id="path40697" />
      <path
         d="m 187.20489,510.16446 q -2.0066,0 -3.2512,-0.9906 -1.2192,-0.9906 -1.2192,-2.9972 0,-2.2098 1.5748,-3.302 1.6002,-1.0922 4.5974,-1.1684 l 2.921,-0.0762 v -0.5588 q 0,-1.8288 -0.9144,-2.4892 -0.9144,-0.6858 -2.4638,-0.6858 -1.0922,0 -2.0828,0.2794 -0.9906,0.2794 -1.8796,0.7874 l -0.7874,-1.7272 q 0.9652,-0.4826 2.1336,-0.8382 1.1938,-0.3556 2.7432,-0.3556 2.5654,0 3.937,1.1684 1.397,1.143 1.397,3.5814 v 9.1186 h -1.8288 l -0.254,-1.8796 h -0.1016 q -0.8382,1.0668 -1.9304,1.6002 -1.0922,0.5334 -2.5908,0.5334 z m 0.381,-1.8542 q 1.143,0 2.1082,-0.4064 0.9652,-0.4318 1.5494,-1.27 0.5842,-0.8636 0.5842,-2.159 v -1.2192 l -2.4384,0.0762 q -2.4384,0.0762 -3.4798,0.7874 -1.016,0.7112 -1.016,1.9812 0,1.1684 0.7366,1.7018 0.7366,0.508 1.9558,0.508 z"
         id="path40699" />
      <path
         d="m 203.28309,510.16446 q -1.27,0 -2.4384,-0.2286 -1.14299,-0.2286 -1.98119,-0.635 v -2.1082 q 0.889,0.4064 1.95579,0.762 1.0922,0.3302 2.5908,0.3302 1.6764,0 2.3622,-0.508 0.7112,-0.5334 0.7112,-1.524 0,-0.5334 -0.254,-0.8636 -0.2286,-0.3556 -0.9144,-0.7112 -0.6858,-0.3556 -2.0066,-0.9144 -1.3208,-0.5842 -2.2606,-1.0922 -0.9398,-0.508 -1.44779,-1.1938 -0.508,-0.7112 -0.508,-1.8034 0,-1.8034 1.37159,-2.7178 1.397,-0.9144 3.8608,-0.9144 1.1176,0 2.1336,0.2032 1.016,0.2032 2.1082,0.6604 l -0.6858,1.778 q -1.016,-0.4318 -1.8796,-0.5842 -0.8382,-0.1524 -1.6764,-0.1524 -1.5748,0 -2.3114,0.4064 -0.7112,0.4064 -0.7112,1.27 0,0.5588 0.3048,0.9398 0.3302,0.381 1.0414,0.7366 0.7366,0.3556 1.9304,0.8636 1.3462,0.5588 2.286,1.0414 0.9398,0.4826 1.4224,1.1684 0.4826,0.6604 0.4826,1.8288 0,1.9304 -1.397,2.9464 -1.3716,1.016 -4.0894,1.016 z"
         id="path40701" />
      <path
         d="m 221.6473,510.16446 q -1.4478,0 -2.5908,-0.381 -1.143,-0.381 -1.8288,-1.3462 -0.6604,-0.9652 -0.6604,-2.667 v -7.5692 h -3.7084 v -1.5748 l 3.7084,-0.4064 0.4572,-3.556 h 1.8288 v 3.6322 h 5.3086 v 1.905 h -5.3086 v 7.1374 q 0,1.5494 0.6858,2.2606 0.6858,0.7112 2.2606,0.7112 0.6604,0 1.4224,-0.127 0.762,-0.127 1.3208,-0.254 v 1.8288 q -0.6096,0.1524 -1.3462,0.2794 -0.7366,0.127 -1.5494,0.127 z"
         id="path40703" />
      <path
         d="m 232.92491,510.16446 q -2.0066,0 -3.2512,-0.9906 -1.2192,-0.9906 -1.2192,-2.9972 0,-2.2098 1.5748,-3.302 1.6002,-1.0922 4.5974,-1.1684 l 2.921,-0.0762 v -0.5588 q 0,-1.8288 -0.9144,-2.4892 -0.9144,-0.6858 -2.4638,-0.6858 -1.0922,0 -2.0828,0.2794 -0.9906,0.2794 -1.8796,0.7874 l -0.7874,-1.7272 q 0.9652,-0.4826 2.1336,-0.8382 1.1938,-0.3556 2.7432,-0.3556 2.5654,0 3.937,1.1684 1.397,1.143 1.397,3.5814 v 9.1186 h -1.8288 l -0.254,-1.8796 h -0.1016 q -0.8382,1.0668 -1.9304,1.6002 -1.0922,0.5334 -2.5908,0.5334 z m 0.381,-1.8542 q 1.143,0 2.1082,-0.4064 0.9652,-0.4318 1.5494,-1.27 0.5842,-0.8636 0.5842,-2.159 v -1.2192 l -2.4384,0.0762 q -2.4384,0.0762 -3.4798,0.7874 -1.016,0.7112 -1.016,1.9812 0,1.1684 0.7366,1.7018 0.7366,0.508 1.9558,0.508 z"
         id="path40705" />
      <path
         d="m 249.56192,499.49646 q -0.6604,0 -1.1176,-0.4064 -0.4572,-0.4064 -0.4572,-1.3208 0,-0.9652 0.4572,-1.3462 0.4572,-0.381 1.1176,-0.381 0.6604,0 1.0922,0.381 0.4572,0.381 0.4572,1.3462 0,0.9144 -0.4572,1.3208 -0.4318,0.4064 -1.0922,0.4064 z m -0.0254,10.668 q -0.6604,0 -1.1176,-0.4064 -0.4572,-0.4064 -0.4572,-1.3208 0,-0.9652 0.4572,-1.3462 0.4572,-0.381 1.1176,-0.381 0.6604,0 1.0922,0.381 0.4572,0.381 0.4572,1.3462 0,0.9144 -0.4572,1.3208 -0.4318,0.4064 -1.0922,0.4064 z"
         id="path40707" />
      <path
         d="m 264.80193,499.49646 q -0.6604,0 -1.1176,-0.4064 -0.4572,-0.4064 -0.4572,-1.3208 0,-0.9652 0.4572,-1.3462 0.4572,-0.381 1.1176,-0.381 0.6604,0 1.0922,0.381 0.4572,0.381 0.4572,1.3462 0,0.9144 -0.4572,1.3208 -0.4318,0.4064 -1.0922,0.4064 z m -0.0254,10.668 q -0.6604,0 -1.1176,-0.4064 -0.4572,-0.4064 -0.4572,-1.3208 0,-0.9652 0.4572,-1.3462 0.4572,-0.381 1.1176,-0.381 0.6604,0 1.0922,0.381 0.4572,0.381 0.4572,1.3462 0,0.9144 -0.4572,1.3208 -0.4318,0.4064 -1.0922,0.4064 z"
         id="path40709" />
      <path
         d="m 280.75315,510.16446 q -1.4986,0 -2.54,-0.5842 -1.016,-0.6096 -1.6002,-1.397 h -0.1524 l -0.2032,1.7272 h -1.8288 v -19.304 h 2.2098 v 4.6736 q 0,0.7112 -0.0254,1.397 0,0.6858 -0.0762,1.397 h 0.1016 q 0.5334,-0.8128 1.5494,-1.4224 1.016,-0.6096 2.5654,-0.6096 2.4638,0 3.9624,1.778 1.524,1.778 1.524,5.2578 0,3.5052 -1.524,5.3086 -1.524,1.778 -3.9624,1.778 z m -0.4318,-1.8542 q 1.8542,0 2.7178,-1.3462 0.8636,-1.3462 0.8636,-3.8862 0,-2.4892 -0.8636,-3.8354 -0.8636,-1.3462 -2.7432,-1.3462 -1.7526,0 -2.7178,1.3462 -0.9398,1.3208 -0.9398,3.7846 0,2.5654 0.889,3.937 0.9144,1.3462 2.794,1.3462 z"
         id="path40711" />
      <path
         d="m 291.01475,509.91046 v -1.524 l 3.81,-0.254 v -9.5504 q 0,-1.0668 0.0254,-2.3368 0.0508,-1.2954 0.0762,-2.1336 -0.4064,0.2286 -0.7366,0.381 -0.3302,0.1524 -0.9906,0.4826 l -2.1082,1.0922 -0.9906,-1.7272 5.0546,-2.5654 h 1.8542 v 16.3576 l 3.8354,0.254 v 1.524 z"
         style="fill:#89a02c"
         id="path40713" />
      <path
         d="m 313.08736,510.16446 q -1.4478,0 -2.5908,-0.381 -1.143,-0.381 -1.8288,-1.3462 -0.6604,-0.9652 -0.6604,-2.667 v -7.5692 h -3.7084 v -1.5748 l 3.7084,-0.4064 0.4572,-3.556 h 1.8288 v 3.6322 h 5.3086 v 1.905 h -5.3086 v 7.1374 q 0,1.5494 0.6858,2.2606 0.6858,0.7112 2.2606,0.7112 0.6604,0 1.4224,-0.127 0.762,-0.127 1.3208,-0.254 v 1.8288 q -0.6096,0.1524 -1.3462,0.2794 -0.7366,0.127 -1.5494,0.127 z"
         id="path40715" />
      <path
         d="m 318.11656,513.82206 v -2.032 h 15.24 v 2.032 z"
         id="path40717" />
      <path
         d="m 339.52878,509.91046 -5.0292,-13.6144 h 2.3368 l 2.8448,8.0772 q 0.2794,0.8128 0.5842,1.7018 0.3302,0.889 0.6604,1.905 h 0.0762 q 0.3302,-1.016 0.6604,-1.905 0.3556,-0.9144 0.6096,-1.7018 l 2.7686,-8.0772 h 2.3876 l -5.08,13.6144 z"
         id="path40719" />
      <path
         d="m 357.15639,510.16446 q -3.2766,0 -5.1562,-1.8034 -1.8796,-1.8288 -1.8796,-5.207 0,-2.2352 0.8128,-3.81 0.8128,-1.6002 2.2606,-2.4384 1.4478,-0.8636 3.3782,-0.8636 2.667,0 4.191,1.7272 1.5494,1.7272 1.5494,4.7244 v 1.0414 h -9.8806 q 0.0508,1.778 0.6604,2.8194 0.635,1.0414 1.7018,1.4986 1.0922,0.4318 2.5146,0.4318 1.1176,0 2.2098,-0.3048 1.0922,-0.3048 2.1844,-0.8128 v 2.032 q -1.1684,0.508 -2.3368,0.7366 -1.1684,0.2286 -2.2098,0.2286 z m 2.8702,-8.4582 q -0.0762,-1.778 -0.9652,-2.794 -0.8636,-1.016 -2.4892,-1.016 -1.7018,0 -2.7686,1.0414 -1.0414,1.016 -1.3208,2.7686 z"
         id="path40721" />
      <path
         d="m 372.42179,510.16446 q -2.9972,0 -4.7244,-1.6256 -1.7018,-1.651 -1.7018,-5.334 0,-2.6162 0.8382,-4.191 0.8636,-1.5748 2.3622,-2.2606 1.524,-0.7112 3.4544,-0.7112 1.1938,0 2.159,0.254 0.9906,0.2286 1.8542,0.6858 l -0.6858,1.8542 q -0.8128,-0.4318 -1.5748,-0.6096 -0.762,-0.2032 -1.651,-0.2032 -2.3368,0 -3.3782,1.2954 -1.0414,1.27 -1.0414,3.8354 0,2.7178 1.0922,3.8862 1.0922,1.1684 3.2512,1.1684 1.1176,0 2.1082,-0.2286 0.9906,-0.254 1.7272,-0.5842 v 2.0066 q -0.762,0.3556 -1.8796,0.5588 -1.1176,0.2032 -2.2098,0.2032 z"
         id="path40723" />
      <path
         d="m 389.28741,510.16446 q -1.4478,0 -2.5908,-0.381 -1.143,-0.381 -1.8288,-1.3462 -0.6604,-0.9652 -0.6604,-2.667 v -7.5692 h -3.7084 v -1.5748 l 3.7084,-0.4064 0.4572,-3.556 h 1.8288 v 3.6322 h 5.3086 v 1.905 h -5.3086 v 7.1374 q 0,1.5494 0.6858,2.2606 0.6858,0.7112 2.2606,0.7112 0.6604,0 1.4224,-0.127 0.762,-0.127 1.3208,-0.254 v 1.8288 q -0.6096,0.1524 -1.3462,0.2794 -0.7366,0.127 -1.5494,0.127 z"
         id="path40725" />
      <path
         d="m 401.91122,510.16446 q -3.175,0 -4.6228,-2.4638 -1.4478,-2.4892 -1.4478,-6.8834 0,-2.9464 0.6096,-5.0038 0.6096,-2.0828 1.9304,-3.175 1.3462,-1.1176 3.5306,-1.1176 3.2004,0 4.6482,2.4384 1.4732,2.4384 1.4732,6.858 0,2.921 -0.6096,5.0292 -0.6096,2.0828 -1.9558,3.2004 -1.3462,1.1176 -3.556,1.1176 z m -3.937,-9.3472 q 0,1.1176 0.0762,2.1082 0.1016,0.9652 0.2794,1.7526 l 6.0198,-10.1854 q -0.9398,-0.9652 -2.4384,-0.9652 -2.0574,0 -2.9972,1.8034 -0.9398,1.778 -0.9398,5.4864 z m 3.937,7.3406 q 2.0828,0 3.0734,-1.778 0.9906,-1.8034 0.9906,-5.5626 0,-2.6416 -0.508,-4.318 l -6.1722,10.414 q 0.9398,1.2446 2.6162,1.2446 z"
         style="fill:#89a02c"
         id="path40727" />
      <path
         d="m 411.13143,509.91046 v -1.524 l 4.1402,-0.381 v -9.8044 l -3.7338,-0.3302 v -1.5748 h 5.5626 l 0.3048,2.4892 h 0.1016 q 0.7112,-1.3462 1.5494,-2.032 0.8636,-0.7112 2.2606,-0.7112 0.8636,0 1.524,0.1524 0.6858,0.1524 1.2446,0.4064 l -0.6096,2.0066 q -0.4064,-0.2286 -0.9652,-0.381 -0.5588,-0.1778 -1.1938,-0.1778 -1.0922,0 -1.9304,0.6858 -0.8382,0.6858 -1.3208,1.8288 -0.4826,1.143 -0.4826,2.5146 v 4.9276 l 3.9624,0.381 v 1.524 z"
         id="path40729" />
    </g>
  </g>
</svg>
